<svg aria-hidden="true" style="position:absolute;width:0;height:0;overflow:hidden" xmlns="http://www.w3.org/2000/svg"><defs><symbol id="icon-antena" viewBox="0 0 72 32"><path fill="#f5f4fa" style="fill:var(--color1, #f5f4fa)" d="M1.067 0h69.867c.589 0 1.067.478 1.067 1.067v29.867c0 .589-.478 1.067-1.067 1.067H1.067A1.067 1.067 0 0 1 0 30.934V1.067C0 .478.478 0 1.067 0z"/><path fill="#212121" style="fill:var(--color2, #212121)" d="m44.618 19.557-4.925-4.961.547-2.692c.141.055.291.084.442.085h.004a1.26 1.26 0 1 0-1.172-.837l-2.893.353-4.719-4.744a.309.309 0 0 0-.438-.002l-.882.877a.31.31 0 0 0 0 .44l.475.482a8.716 8.716 0 0 0 1.47 10.303.302.302 0 0 0 .085.057c-.02.105-.03.212-.03.319v3.609h-3.733a1.558 1.558 0 0 0-1.556 1.556v.622a.31.31 0 0 0 .311.311h14.311a.31.31 0 0 0 .311-.311v-.622a1.558 1.558 0 0 0-1.555-1.556h-3.733v-1.599a8.785 8.785 0 0 0 1.778.187 8.673 8.673 0 0 0 4.107-1.04l.477.48a.309.309 0 0 0 .438.002l.882-.877a.31.31 0 0 0 0-.44zm-4.371-9.254a.623.623 0 1 1 .439 1.063h-.002a.623.623 0 0 1-.436-1.063h-.001zm-.733 2.044-.349 1.718-.686-.69 1.035-1.029zm-.353-.526-1.12 1.113-.866-.871 1.986-.242zm1.508 11.646c.515 0 .933.418.933.933v.311H27.913V24.4c0-.515.418-.933.933-.933h11.822zm-4.355-1.245v.622h-3.111v-.622h3.111zm-3.112-.622v-2.364c0-.755.698-1.369 1.555-1.369s1.556.614 1.556 1.369V21.6h-3.111zm3.734-.989v-1.375c0-1.098-.977-1.991-2.178-1.991a2.217 2.217 0 0 0-1.914 1.042 8.09 8.09 0 0 1-1.329-9.268l10.851 10.913a8.068 8.068 0 0 1-5.43.679zm6.585-.399L31.238 7.857l.44-.439 4.629 4.655c.002 0 .003.004.006.006l7.65 7.695-.441.439z"/><path fill="#2196f3" style="fill:var(--color3, #2196f3)" d="M34.761 18.489h-.003a.934.934 0 0 0-.003 1.867h.003a.934.934 0 0 0 .003-1.867zm.217 1.154a.31.31 0 1 1-.438-.441.314.314 0 0 1 .218-.091.312.312 0 0 1 .218.532h.003z"/></symbol><symbol id="icon-astronaut" viewBox="0 0 72 32"><path fill="#f5f4fa" style="fill:var(--color1, #f5f4fa)" d="M1.067 0h69.867c.589 0 1.067.478 1.067 1.067v29.867c0 .589-.478 1.067-1.067 1.067H1.067A1.067 1.067 0 0 1 0 30.934V1.067C0 .478.478 0 1.067 0z"/><path fill="#2196f3" style="fill:var(--color3, #2196f3)" d="M45.318 9.306a.315.315 0 0 0-.251-.212l-1.114-.162-.499-1.01c-.105-.213-.453-.213-.558 0l-.499 1.01-1.115.162a.311.311 0 0 0-.172.531l.807.786-.19 1.11a.311.311 0 0 0 .451.328l.997-.524.997.524a.311.311 0 0 0 .451-.327l-.19-1.11.807-.786a.312.312 0 0 0 .079-.319zm-1.436.774a.31.31 0 0 0-.089.275l.111.65-.583-.307a.308.308 0 0 0-.29 0l-.583.307.111-.65a.309.309 0 0 0-.089-.275l-.473-.46.653-.095a.31.31 0 0 0 .234-.17l.292-.591.292.591a.31.31 0 0 0 .234.17l.653.095-.472.46zM41.911 18.638h-.622v.622h.622v-.622zM41.911 19.882h-.622v.622h.622v-.622zM42.533 19.26h-.622v.622h.622v-.622zM41.289 19.26h-.622v.622h.622v-.622zM39.733 22.06h-.622v.622h.622v-.622zM39.733 23.305h-.622v.622h.622v-.622zM40.356 22.682h-.622v.622h.622v-.622zM39.111 22.682h-.622v.622h.622v-.622zM36 20.816h-.622v.622H36v-.622zM36 22.06h-.622v.622H36v-.622zM36.622 21.438H36v.622h.622v-.622zM35.378 21.438h-.622v.622h.622v-.622zM30.089 10.238h-.622v.622h.622v-.622zM30.089 11.482h-.622v.622h.622v-.622zM30.711 10.86h-.622v.622h.622v-.622zM29.467 10.86h-.622v.622h.622v-.622z"/><path fill="#212121" style="fill:var(--color2, #212121)" d="M41.084 14.926a1.036 1.036 0 0 0-.693-.411 1.038 1.038 0 0 0-.782.205l-.73.56-1.107.827-.792-.316a4.046 4.046 0 0 0 2.4-3.687c0-2.23-1.822-4.044-4.061-4.044s-4.061 1.814-4.061 4.044c0 .808.242 1.56.653 2.192l-1.612-.014h-.003c-.005 0-.009.002-.014.003a.289.289 0 0 0-.091.018c-.007.003-.015.004-.022.008l-.011.004-1.886.931h-.001l-1.104.531a1.039 1.039 0 0 0 .545 1.927c.169 0 .336-.041.49-.123l.81-.431 1.321-.682.791-.005-3.174 3.159-.001.001-.781.778a.967.967 0 0 0 0 1.375.98.98 0 0 0 1.377 0l.767-.764 1.015-.758.525.523-1.027 1.023-.001.001-.781.778a.967.967 0 0 0 0 1.375.979.979 0 0 0 1.377 0l2.031-2.022.001-.001.589-.583-.002-.002c.004-.004.009-.005.013-.009l3.013-3.301 2.025.288a.312.312 0 0 0 .153-.019l.029-.014c.011-.006.023-.009.034-.016l1.874-1.244c.007-.005.011-.012.017-.017.007-.006.017-.008.024-.015l.742-.695c.386-.362.439-.954.124-1.378zm-13.175 2.107c-.101.054-.216.065-.326.03a.417.417 0 0 1-.124-.735l.766-.369.185.539.077.226-.579.308zm2.04-1.067-.903.467-.149-.436-.107-.313 1.182-.584-.023.866zm8.808-3.862c0 .536-.128 1.041-.349 1.493l-2.439-1.108a1.086 1.086 0 0 0-.46-.81l.854-2.835a3.429 3.429 0 0 1 2.394 3.26zm-6.876 0a3.434 3.434 0 0 1 3.873-3.392l-.835 2.773-.033-.003c-.602 0-1.093.488-1.093 1.089s.49 1.089 1.093 1.089c.405 0 .755-.224.944-.551l2.253 1.024a3.436 3.436 0 0 1-2.763 1.394 3.434 3.434 0 0 1-3.438-3.422zm3.474.467a.47.47 0 0 1-.94 0c0-.258.211-.467.47-.467s.47.209.47.467zm-7.25 8.764a.354.354 0 0 1-.498 0 .348.348 0 0 1 0-.493l.561-.559.497.494-.559.557zm1.874 2.178a.354.354 0 0 1-.602-.247c0-.093.036-.18.103-.246l.562-.559.497.494-.56.557zm2.031-2.023-.001.001-1.03 1.027-.497-.494L31.511 21l.001-.001a.292.292 0 0 0 .052-.079c.004-.008.012-.015.015-.023.01-.024.011-.05.015-.075.002-.014.008-.028.008-.042 0-.021-.007-.041-.012-.062-.004-.019-.004-.038-.011-.056a.318.318 0 0 0-.053-.08c-.006-.007-.008-.016-.015-.022h-.001l-.001-.001-.937-.933c-.01-.01-.023-.014-.034-.022-.017-.013-.032-.025-.051-.034s-.036-.014-.055-.019a.304.304 0 0 0-.06-.012c-.019-.001-.037.001-.055.003a.254.254 0 0 0-.116.038c-.012.007-.025.009-.035.017l-1.035.772-.525-.523 1.399-1.392 2.543 2.502-.541.536zm3.978-4.093c-.009-.001-.017.002-.026.002a.302.302 0 0 0-.174.043.343.343 0 0 0-.049.036c-.007.006-.017.01-.023.017l-2.741 3.002-2.525-2.483 1.653-1.644a.311.311 0 0 0-.221-.531l-1.294.008.016-.938 1.811.016a4.052 4.052 0 0 0 3.652 1.153.27.27 0 0 0 .075.049l1.406.56.089.442.104.516-1.752-.249zm2.357.103-.182-.909.844-.63.552.733-1.214.806zm2.19-1.651-.489.458-.543-.721.485-.372a.425.425 0 0 1 .597.083.417.417 0 0 1-.05.553z"/><path fill="#212121" style="fill:var(--color2, #212121)" d="m34.601 17.484-1.25-1.244a.31.31 0 0 0-.439 0l-1.25 1.244a.315.315 0 0 0 0 .442l1.25 1.244a.307.307 0 0 0 .438 0l1.25-1.244a.312.312 0 0 0 0-.442zm-1.469 1.026-.809-.805.809-.805.809.805-.809.805zM36.679 9.625l-.15.604c.041.01 1.014.264 1.014 1.254h.622c0-1.177-.972-1.73-1.486-1.858zM38.165 12.104h-.622v.622h.622v-.622z"/></symbol><symbol id="icon-clock" viewBox="0 0 72 32"><path fill="#f5f4fa" style="fill:var(--color1, #f5f4fa)" d="M1.067 0h69.867c.589 0 1.067.478 1.067 1.067v29.867c0 .589-.478 1.067-1.067 1.067H1.067A1.067 1.067 0 0 1 0 30.934V1.067C0 .478.478 0 1.067 0z"/><path fill="#212121" style="fill:var(--color2, #212121)" d="M44.923 15.592c-.001-4.931-3.999-8.927-8.93-8.926a8.928 8.928 0 0 0-2.714 17.433.394.394 0 0 0 .309-.038.37.37 0 0 0 .165-.208l2.255-7.146a1.116 1.116 0 1 0-.49-2.12l-2.978-2.979a.372.372 0 0 0-.526.526l2.977 2.98a1.095 1.095 0 0 0 .313 1.347l-2.148 6.809A8.192 8.192 0 1 1 38.82 7.897a8.192 8.192 0 0 1 .502 15.169l-.232-1.093a.372.372 0 0 0-.612-.201L36.24 23.77a.372.372 0 0 0 .134.632l2.858.912a.373.373 0 0 0 .478-.431l-.228-1.073a8.9 8.9 0 0 0 5.442-8.219zm-8.928-.372a.373.373 0 1 1-.001.745.373.373 0 0 1 .001-.745zm1.226 8.671 1.274-1.136.352 1.657-1.626-.52z"/><path fill="#2196f3" style="fill:var(--color3, #2196f3)" d="M35.623 8.525v.744a.371.371 0 1 0 .744 0v-.744a.373.373 0 0 0-.744 0zM28.928 15.22a.372.372 0 1 0 0 .744h.744a.372.372 0 1 0 0-.744h-.744zM43.063 15.964a.372.372 0 1 0 0-.744h-.744a.373.373 0 0 0 0 .744h.744z"/></symbol><symbol id="icon-diagram" viewBox="0 0 72 32"><path fill="#f5f4fa" style="fill:var(--color1, #f5f4fa)" d="M1.067 0h69.867c.589 0 1.067.478 1.067 1.067v29.867c0 .589-.478 1.067-1.067 1.067H1.067A1.067 1.067 0 0 1 0 30.934V1.067C0 .478.478 0 1.067 0z"/><path fill="#2196f3" style="fill:var(--color3, #2196f3)" d="M35.373 15.396h.622v2.799h-.622v-2.799zM37.861 16.64h.622v1.555h-.622V16.64zM32.886 17.573h.622v.622h-.622v-.622zM31.02 17.262h.622v.933h-.622v-.933z"/><path fill="#212121" style="fill:var(--color2, #212121)" d="M27.599 23.17h14.926a.933.933 0 0 0 .933-.933v-1.244a.933.933 0 0 0-.933-.933h-.311v-7.754l1.766-1.673a.938.938 0 1 0-.437-.445l-1.331 1.262v-.717a.933.933 0 0 0-.933-.933H28.841a.933.933 0 0 0-.933.933v9.328h-.311a.933.933 0 0 0-.933.933v1.244c0 .515.418.933.933.933zM44.391 9.488a.31.31 0 1 1 0 .621.31.31 0 0 1 0-.621zm-15.859 1.244a.31.31 0 0 1 .311-.311h12.438a.31.31 0 0 1 .311.311v1.306l-.622.591v-1.275a.31.31 0 0 0-.311-.311H29.465a.31.31 0 0 0-.311.311v7.774a.31.31 0 0 0 .311.311h11.194a.311.311 0 0 0 .311-.311v-5.643l.622-.589v7.165h-13.06v-9.328zm2.799 4.042a.933.933 0 1 0 .646 1.603l1.081.542a.31.31 0 0 0 .371-.072l2.298-2.585 2.259 1.692a.31.31 0 0 0 .4-.023l1.963-1.859v4.743H29.777v-7.152h10.572v1.552l-2.2 2.083-2.278-1.707a.311.311 0 0 0-.419.042l-2.329 2.621-.871-.435c.006-.037.01-.075.012-.113a.933.933 0 0 0-.933-.933zm.311.933a.31.31 0 1 1-.621 0 .31.31 0 0 1 .621 0zm1.865 4.975h3.11v.311a.31.31 0 0 1-.311.311h-2.488a.31.31 0 0 1-.311-.311v-.311zm-6.218.311a.31.31 0 0 1 .311-.311h5.286v.311c0 .515.418.933.933.933h2.488a.933.933 0 0 0 .933-.933v-.311h5.286a.31.31 0 0 1 .311.311v1.244a.31.31 0 0 1-.311.311H27.6a.31.31 0 0 1-.311-.311v-1.244z"/></symbol><symbol id="icon-facebook" viewBox="0 0 32 32"><path  d="M32 16c0 4.418-1.791 8.418-4.686 11.314S20.419 32 16 32s-8.418-1.791-11.314-4.686C1.791 24.419 0 20.419 0 16S1.791 7.582 4.686 4.686 11.581 0 16 0c4.418 0 8.418 1.791 11.314 4.686S32 11.581 32 16z"/><path fill="#afb1b8" style="fill:var(--color5, #afb1b8)" d="M18.422 11.142h1.328V8.829a17.317 17.317 0 0 0-1.935-.102c-1.915 0-3.226 1.204-3.226 3.418v2.037h-2.113v2.585h2.113v6.505h2.59v-6.505h2.027l.322-2.585h-2.35v-1.781c.001-.747.202-1.259 1.243-1.259z"/></symbol><symbol id="icon-facebook-footer" viewBox="0 0 32 32"><path  d="M32 16c0 4.418-1.791 8.418-4.686 11.314S20.419 32 16 32s-8.418-1.791-11.314-4.686C1.791 24.419 0 20.419 0 16S1.791 7.582 4.686 4.686C7.581 1.791 11.581 0 16 0s8.418 1.791 11.314 4.686A15.95 15.95 0 0 1 32 16z"/><path fill="#fff" style="fill:var(--color4, #fff)" d="M18.422 11.142h1.328V8.829a17.317 17.317 0 0 0-1.935-.102c-1.915 0-3.226 1.204-3.226 3.418v2.037h-2.113v2.585h2.113v6.505h2.59v-6.505h2.027l.322-2.585h-2.35v-1.781c.001-.747.202-1.259 1.243-1.259z"/></symbol>
<symbol id="icon-insta" viewBox="0 0 32 32"><path  d="M32 16c0 4.418-1.791 8.418-4.686 11.314S20.419 32 16 32s-8.418-1.791-11.314-4.686C1.791 24.419 0 20.419 0 16S1.791 7.582 4.686 4.686 11.581 0 16 0c4.418 0 8.418 1.791 11.314 4.686S32 11.581 32 16z"/><path fill="#afb1b8"  d="M23.258 13.004c-.034-.773-.159-1.304-.338-1.765a3.557 3.557 0 0 0-.841-1.29 3.589 3.589 0 0 0-1.287-.838c-.463-.179-.992-.304-1.764-.338-.779-.037-1.026-.046-3.001-.046s-2.222.009-2.998.043c-.773.034-1.304.159-1.764.338a3.557 3.557 0 0 0-1.29.841 3.589 3.589 0 0 0-.838 1.287c-.179.463-.304.992-.338 1.764-.037.779-.045 1.026-.045 3.001s.008 2.222.043 2.998c.034.773.159 1.304.338 1.765.185.489.472.926.841 1.29.364.369.804.656 1.287.838.463.179.992.304 1.765.338.776.034 1.023.043 2.998.043s2.222-.008 2.998-.043c.773-.034 1.304-.159 1.764-.338a3.72 3.72 0 0 0 2.128-2.128c.179-.463.304-.992.338-1.765.034-.776.043-1.023.043-2.998s-.003-2.222-.037-2.998zm-1.309 5.938c-.031.71-.151 1.094-.25 1.35a2.409 2.409 0 0 1-1.381 1.381c-.256.099-.642.219-1.35.25-.767.034-.997.043-2.938.043s-2.174-.008-2.938-.043c-.71-.031-1.094-.15-1.35-.25a2.228 2.228 0 0 1-.835-.543 2.264 2.264 0 0 1-.543-.835c-.099-.256-.219-.642-.25-1.35-.034-.767-.043-.997-.043-2.938s.008-2.174.043-2.938c.031-.71.151-1.094.25-1.35.117-.315.301-.602.546-.835.236-.242.52-.426.835-.543.256-.099.642-.219 1.35-.25.767-.034.997-.043 2.938-.043 1.944 0 2.174.008 2.938.043.71.031 1.094.151 1.35.25.315.116.602.301.835.543.241.236.426.52.543.835.099.256.219.642.25 1.35.034.767.043.997.043 2.938s-.009 2.168-.043 2.935z"/><path style="fill:var(--color5, #afb1b8)" d="M16.027 12.265a3.737 3.737 0 0 0 0 7.472c2.063 0 3.737-1.674 3.737-3.736s-1.674-3.736-3.737-3.736zm0 6.16a2.424 2.424 0 1 1 0-4.849 2.424 2.424 0 0 1 0 4.849zM20.784 12.117a.872.872 0 1 1-1.744 0 .872.872 0 0 1 1.744 0z"/></symbol>
<symbol id="icon-insta-footer" viewBox="0 0 32 32"><path  d="M32 16c0 4.418-1.791 8.418-4.686 11.314S20.419 32 16 32s-8.418-1.791-11.314-4.686C1.791 24.419 0 20.419 0 16S1.791 7.582 4.686 4.686C7.581 1.791 11.581 0 16 0s8.418 1.791 11.314 4.686A15.95 15.95 0 0 1 32 16z"/><path fill="#fff" style="fill:var(--color4, #fff)" d="M23.258 13.004c-.034-.773-.159-1.304-.338-1.765a3.557 3.557 0 0 0-.841-1.29 3.589 3.589 0 0 0-1.287-.838c-.463-.179-.992-.304-1.764-.338-.779-.037-1.026-.046-3.001-.046s-2.222.009-2.998.043c-.773.034-1.304.159-1.764.338a3.557 3.557 0 0 0-1.29.841 3.589 3.589 0 0 0-.838 1.287c-.179.463-.304.992-.338 1.764-.037.779-.045 1.026-.045 3.001s.008 2.222.043 2.998c.034.773.159 1.304.338 1.765.185.489.472.926.841 1.29.364.369.804.656 1.287.838.463.179.992.304 1.765.338.776.034 1.023.043 2.998.043s2.222-.008 2.998-.043c.773-.034 1.304-.159 1.764-.338a3.72 3.72 0 0 0 2.128-2.128c.179-.463.304-.992.338-1.765.034-.776.043-1.023.043-2.998s-.003-2.222-.037-2.998zm-1.309 5.938c-.031.71-.151 1.094-.25 1.35a2.409 2.409 0 0 1-1.381 1.381c-.256.099-.642.219-1.35.25-.767.034-.997.043-2.938.043s-2.174-.008-2.938-.043c-.71-.031-1.094-.15-1.35-.25a2.228 2.228 0 0 1-.835-.543 2.264 2.264 0 0 1-.543-.835c-.099-.256-.219-.642-.25-1.35-.034-.767-.043-.997-.043-2.938s.008-2.174.043-2.938c.031-.71.151-1.094.25-1.35.117-.315.301-.602.546-.835.236-.242.52-.426.835-.543.256-.099.642-.219 1.35-.25.767-.034.997-.043 2.938-.043 1.944 0 2.174.008 2.938.043.71.031 1.094.151 1.35.25.315.116.602.301.835.543.241.236.426.52.543.835.099.256.219.642.25 1.35.034.767.043.997.043 2.938s-.009 2.168-.043 2.935z"/><path fill="#fff" style="fill:var(--color4, #fff)" d="M16.027 12.265a3.737 3.737 0 1 0 .003 7.475 3.737 3.737 0 0 0-.003-7.475zm0 6.16a2.424 2.424 0 1 1 0-4.849 2.424 2.424 0 0 1 0 4.849zM20.784 12.117a.872.872 0 1 1-1.744 0 .872.872 0 0 1 1.744 0z"/></symbol>
<symbol id="icon-linkid" viewBox="0 0 32 32"><path  d="M32 16c0 4.418-1.791 8.418-4.686 11.314S20.419 32 16 32s-8.418-1.791-11.314-4.686C1.791 24.419 0 20.419 0 16S1.791 7.582 4.686 4.686 11.581 0 16 0c4.418 0 8.418 1.791 11.314 4.686S32 11.581 32 16z"/><path fill="#afb1b8" style="fill:var(--color5, #afb1b8)" d="M23.269 23.273v-.001h.004v-5.335c0-2.61-.562-4.62-3.613-4.62-1.467 0-2.451.805-2.853 1.568h-.042v-1.324h-2.893v9.711h3.012v-4.809c0-1.266.24-2.49 1.808-2.49 1.545 0 1.568 1.445 1.568 2.572v4.728h3.009zM8.967 13.562h3.016v9.711H8.967v-9.711zM10.474 8.727c-.964 0-1.747.782-1.747 1.747s.782 1.763 1.747 1.763c.964 0 1.747-.799 1.747-1.763s-.783-1.747-1.747-1.747z"/></symbol>
<symbol id="icon-linkid-footer" viewBox="0 0 32 32"><path  d="M32 16c0 4.418-1.791 8.418-4.686 11.314S20.419 32 16 32s-8.418-1.791-11.314-4.686C1.791 24.419 0 20.419 0 16S1.791 7.582 4.686 4.686C7.581 1.791 11.581 0 16 0s8.418 1.791 11.314 4.686A15.95 15.95 0 0 1 32 16z"/><path fill="#fff" style="fill:var(--color4, #fff)" d="M23.269 23.273v-.001h.004v-5.335c0-2.61-.562-4.62-3.613-4.62-1.467 0-2.451.805-2.853 1.568h-.042v-1.324h-2.893v9.711h3.012v-4.809c0-1.266.24-2.49 1.808-2.49 1.545 0 1.568 1.445 1.568 2.572v4.728h3.009zM8.967 13.562h3.016v9.711H8.967v-9.711zM10.474 8.727c-.964 0-1.747.782-1.747 1.747s.782 1.763 1.747 1.763c.964 0 1.747-.799 1.747-1.763s-.783-1.747-1.747-1.747z"/></symbol>
<symbol id="icon-Logo-1" viewBox="0 0 57 32"><path  d="m20.267 3.733 3.738 3.538-6.938-.004v17.166H35.2v-6.564l3.733 3.534V3.732H20.266zm14.769 13.722L24.439 7.423h10.597v10.032zm-3.29 4.468h-11.81V10.378h.835v10.764h10.975v.782zm-9.021 4.797-.436.898-.436-.898h-.366l.637 1.198v.698h.331v-.698l.635-1.198h-.365zm.548 1.895.154-.441h.734l.155.441h.344l-.717-1.896h-.296l-.716 1.896h.342zm.521-1.493.275.786h-.549l.275-.786zm1.737.741a.429.429 0 0 0-.072.241c0 .16.056.29.168.389s.263.148.451.148.349-.051.484-.152l.107.126h.367l-.279-.329a.95.95 0 0 0 .164-.574h-.275a.758.758 0 0 1-.079.348l-.366-.432.129-.094c.091-.066.157-.132.197-.198s.06-.14.06-.219c0-.12-.044-.22-.133-.301s-.201-.122-.339-.122c-.153 0-.274.043-.365.13s-.135.203-.135.352c0 .061.014.124.043.189s.081.144.155.237a1.12 1.12 0 0 0-.283.262zm.855.419a.485.485 0 0 1-.299.107c-.095 0-.17-.027-.227-.082s-.085-.126-.085-.214c0-.102.052-.192.156-.271l.04-.029.414.488zm-.34-.84c-.089-.11-.134-.202-.134-.275 0-.063.018-.116.055-.158s.085-.063.147-.063c.057 0 .105.018.142.053s.056.077.056.126a.235.235 0 0 1-.081.184l-.04.033-.145.099zm3.086 1.03a.689.689 0 0 0 .224-.474h-.328c-.017.135-.059.232-.124.29s-.162.087-.292.087c-.142 0-.249-.054-.323-.161s-.109-.264-.109-.469v-.168c.002-.202.041-.355.117-.46s.188-.158.331-.158c.123 0 .217.03.28.091s.104.158.12.294h.328c-.021-.207-.095-.368-.223-.482s-.296-.171-.505-.171a.718.718 0 0 0-.683.426 1.116 1.116 0 0 0-.095.473v.177c.003.174.035.328.098.46s.151.234.266.306a.748.748 0 0 0 .4.107c.216 0 .389-.056.52-.169zm1.936-.266c.064-.141.096-.304.096-.49v-.105c-.001-.185-.034-.347-.099-.486a.726.726 0 0 0-.687-.432.757.757 0 0 0-.411.113c-.119.075-.211.183-.277.324s-.098.305-.098.49v.107c.001.181.034.342.099.48s.159.246.279.322a.764.764 0 0 0 .411.112c.155 0 .293-.037.411-.112s.212-.183.276-.323zm-.352-1.071c.08.112.12.273.12.483v.099c0 .214-.04.376-.119.487s-.19.167-.336.167c-.144 0-.257-.057-.339-.171s-.121-.275-.121-.483v-.109c.002-.204.043-.362.122-.473s.192-.168.335-.168c.146 0 .258.056.337.168z"/></symbol>
<symbol id="icon-Logo-2" viewBox="0 0 57 32"><path  d="M26.727 3.165h-.073a7.542 7.542 0 0 0-.336-.012h-.243c-.212 0-.428.005-.642.016a.4.4 0 0 0-.049 0c-1.944.11-3.848.596-5.609 1.431l-.231.111V16.52l.54-.183a20.64 20.64 0 0 1 1.5-.445 18.34 18.34 0 0 1 4.317-.574v1.551c-.193.001-.38.007-.568.016h-.045a17.207 17.207 0 0 0-3.322.51 16.858 16.858 0 0 0-3.957 1.542V3.792a15.847 15.847 0 0 1 4.151-1.688c1.278-.33 2.593-.5 3.913-.504h.228c.273.007.538.019.788.038.658.046 1.31.15 1.95.311v1.527a12.05 12.05 0 0 0-1.889-.285l-.039-.003c-.132-.011-.263-.022-.386-.022zm2.688 1.561c.339.026.689.038 1.044.038a16.75 16.75 0 0 0 4.114-.528 16.958 16.958 0 0 0 3.956-1.543v14.875a15.88 15.88 0 0 1-4.153 1.688 15.948 15.948 0 0 1-3.913.503c-1 .008-1.997-.11-2.968-.35V4.438c.229.053.465.102.706.142.394.066.81.115 1.214.145zm7.57.115-.54.182c-.497.167-.997.316-1.5.449a18.23 18.23 0 0 1-4.483.575c-.352 0-.676-.01-.989-.03l-.43-.028v12.148l.37.033c.343.03.696.045 1.052.045a14.364 14.364 0 0 0 3.531-.457c.95-.238 1.874-.57 2.759-.991l.231-.111V4.843zM19.06 24.113a.788.788 0 0 0-.6-.243.895.895 0 0 0-.347.065.778.778 0 0 0-.444.449.893.893 0 0 0-.062.335v2.023a.94.94 0 0 0 .08.415.718.718 0 0 0 .48.415c.098.028.2.042.302.042a.855.855 0 0 0 .838-.851v-.226h-.529v.18a.458.458 0 0 1-.031.18.315.315 0 0 1-.077.114.38.38 0 0 1-.222.077.266.266 0 0 1-.249-.109.479.479 0 0 1-.07-.271v-1.887a.643.643 0 0 1 .065-.302c.027-.043.066-.077.112-.098s.097-.03.147-.024a.28.28 0 0 1 .236.114c.059.078.09.173.088.271v.175h.524v-.206a.953.953 0 0 0-.242-.639zM22.202 24.09a.92.92 0 0 0-1.197 0 .82.82 0 0 0-.205.283.959.959 0 0 0-.077.392v1.941a.932.932 0 0 0 .077.397.791.791 0 0 0 .205.271.837.837 0 0 0 .279.171.897.897 0 0 0 .918-.171.849.849 0 0 0 .2-.271.934.934 0 0 0 .077-.397v-1.941a.943.943 0 0 0-.077-.392.867.867 0 0 0-.2-.283zm-.247 2.616a.355.355 0 0 1-.105.28.386.386 0 0 1-.498 0 .352.352 0 0 1-.105-.28v-1.941a.355.355 0 0 1 .105-.28.386.386 0 0 1 .498 0 .352.352 0 0 1 .105.28v1.941zM26.329 27.573v-3.674h-.509l-.668 1.945h-.009l-.673-1.945h-.503v3.674h.525v-2.235h.009l.514 1.58h.262l.518-1.58h.009v2.235h.525zM29.311 24.157a.727.727 0 0 0-.297-.201 1.168 1.168 0 0 0-.38-.057h-.78v3.674h.523v-1.435h.27a.964.964 0 0 0 .472-.1.759.759 0 0 0 .287-.281.875.875 0 0 0 .12-.32c.021-.138.03-.278.028-.418a2.107 2.107 0 0 0-.051-.525.785.785 0 0 0-.193-.338zm-.27 1.12a.45.45 0 0 1-.049.191.296.296 0 0 1-.135.129.538.538 0 0 1-.247.046h-.239v-1.249h.27a.506.506 0 0 1 .236.046.3.3 0 0 1 .123.136.537.537 0 0 1 .046.205v.244c0 .085.005.174 0 .252h-.005zM31.791 23.899h-.429l-.809 3.674h.523l.154-.789h.714l.154.789h.524l-.83-3.674zm-.483 2.384.258-1.332h.009l.256 1.332h-.524zM35.173 26.112h-.009l-.791-2.213h-.503v3.674h.523v-2.209h.011l.8 2.209h.492v-3.674h-.523v2.213zM38.372 23.899l-.421 1.461h-.011l-.421-1.461h-.554l.719 2.121v1.553h.524V26.02l.719-2.121h-.554zM17.6 28.61h.252v.708h.171v-.708h.251v-.145h-.675v.145zM19.721 28.465l-.331.853h.182l.07-.194h.34l.073.194h.186l-.339-.853h-.182zm-.027.516.116-.316.116.316h-.232zM21.818 29.004h.197v.11a.332.332 0 0 1-.202.072c-.034.002-.069-.004-.1-.019s-.059-.036-.081-.063a.352.352 0 0 1-.063-.222c0-.19.082-.285.246-.285.043-.004.086.007.121.032s.061.062.072.104l.169-.033c-.036-.167-.156-.251-.362-.251a.426.426 0 0 0-.298.11.413.413 0 0 0-.122.328.465.465 0 0 0 .109.32.408.408 0 0 0 .324.125.511.511 0 0 0 .362-.136v-.336h-.37v.144zM23.959 28.465h-.173v.853h.598v-.145h-.425v-.708zM25.769 28.465h-.173v.853h.173v-.853zM27.539 29.035l-.349-.57h-.167v.853h.161v-.557l.343.557h.171v-.853h-.158v.57zM29.14 28.943h.425v-.145h-.425v-.187h.457v-.145h-.63v.853h.648v-.145h-.475v-.231zM33.02 28.802h-.336v-.336h-.171v.853h.171v-.373h.336v.373h.171v-.853h-.171v.336zM34.629 28.943h.426v-.145h-.426v-.187h.459v-.145h-.63v.853h.646v-.145h-.475v-.231zM36.812 28.943c.148-.023.224-.102.224-.237a.203.203 0 0 0-.084-.189.479.479 0 0 0-.25-.05h-.362v.853h.171v-.357h.034a.231.231 0 0 1 .107.019.181.181 0 0 1 .061.062l.186.271h.205L37 29.148a.6.6 0 0 0-.189-.205zm-.172-.118h-.127v-.214h.135a.445.445 0 0 1 .174.02c.012.011.022.025.029.04a.116.116 0 0 1-.004.097.114.114 0 0 1-.032.037.486.486 0 0 1-.174.02zM38.458 28.943h.425v-.145h-.425v-.187h.459v-.145h-.631v.853h.648v-.145h-.475v-.231z"/></symbol><symbol id="icon-Logo-3" viewBox="0 0 57 32"><path  d="M19.417 26.187c.008 0 .017.002.025.005s.015.007.02.013l.116.111a.955.955 0 0 1-.327.211 1.299 1.299 0 0 1-.464.076 1.213 1.213 0 0 1-.436-.071.942.942 0 0 1-.329-.2.878.878 0 0 1-.212-.308 1.02 1.02 0 0 1-.074-.396.91.91 0 0 1 .305-.705 1.06 1.06 0 0 1 .349-.201c.143-.048.296-.072.449-.071.143-.003.285.019.417.064.115.043.221.104.313.178l-.097.119a.085.085 0 0 1-.025.021.066.066 0 0 1-.039.009.086.086 0 0 1-.042-.013l-.052-.032-.073-.04a.818.818 0 0 0-.229-.071 1.11 1.11 0 0 0-.173-.013.952.952 0 0 0-.323.053.683.683 0 0 0-.417.387.81.81 0 0 0-.06.313.795.795 0 0 0 .06.318.68.68 0 0 0 .402.383.867.867 0 0 0 .3.05c.059.001.119-.003.177-.01a.69.69 0 0 0 .384-.163.09.09 0 0 1 .055-.02zM22.776 25.629a.974.974 0 0 1-.078.393c-.047.114-.122.218-.219.305s-.214.155-.344.2a1.42 1.42 0 0 1-.884 0 1.027 1.027 0 0 1-.342-.201.904.904 0 0 1-.221-.308 1.022 1.022 0 0 1 0-.787.94.94 0 0 1 .221-.31c.097-.084.214-.15.342-.193.284-.096.6-.096.884 0 .129.046.246.114.343.201a.914.914 0 0 1 .298.699zm-.306 0a.84.84 0 0 0-.055-.316.653.653 0 0 0-.402-.385 1.025 1.025 0 0 0-.643 0 .683.683 0 0 0-.246.149.63.63 0 0 0-.157.236.927.927 0 0 0 0 .632.643.643 0 0 0 .403.384c.207.067.435.067.643 0a.698.698 0 0 0 .246-.148.662.662 0 0 0 .156-.236.82.82 0 0 0 .055-.316zM25.067 25.96l.03.071.033-.071a.68.68 0 0 1 .038-.07l.743-1.174c.015-.02.028-.033.042-.037a.207.207 0 0 1 .061-.006h.22v1.909h-.26V25.119a.726.726 0 0 1 0-.066l-.747 1.19c-.009.018-.025.033-.044.043s-.041.016-.064.016h-.042c-.023 0-.045-.005-.064-.016s-.034-.026-.044-.044l-.769-1.198v1.533h-.252v-1.905h.22a.207.207 0 0 1 .061.006.087.087 0 0 1 .041.037l.759 1.175a.418.418 0 0 1 .038.068zM27.864 25.865v.715h-.291v-1.906h.649c.122-.002.244.012.362.042a.724.724 0 0 1 .256.119.492.492 0 0 1 .145.187.576.576 0 0 1 .049.244.54.54 0 0 1-.211.435.752.752 0 0 1-.257.126 1.25 1.25 0 0 1-.35.044l-.352-.005zm0-.205h.352a.808.808 0 0 0 .225-.029.52.52 0 0 0 .163-.082.358.358 0 0 0 .134-.286c.003-.053-.007-.106-.029-.155s-.057-.094-.102-.13a.624.624 0 0 0-.391-.102h-.352v.786zM31.772 26.583h-.23a.109.109 0 0 1-.064-.018.123.123 0 0 1-.038-.044l-.198-.461h-.993l-.205.461a.107.107 0 0 1-.101.062h-.23l.872-1.909h.302l.884 1.909zm-1.439-.709h.82l-.346-.777a1.276 1.276 0 0 1-.065-.179l-.034.1a.98.98 0 0 1-.032.081l-.343.776zM33.029 24.682c.017.008.032.02.044.034l1.272 1.439V24.673h.26v1.909h-.145a.136.136 0 0 1-.06-.011.165.165 0 0 1-.047-.035l-1.271-1.438a.726.726 0 0 1 0 .066v1.419h-.26v-1.909h.154a.15.15 0 0 1 .052.009zM36.748 25.823v.758h-.291v-.758l-.804-1.15h.26a.114.114 0 0 1 .063.016.159.159 0 0 1 .039.043l.503.742a.717.717 0 0 1 .088.169l.038-.082a.745.745 0 0 1 .049-.087l.496-.747a.18.18 0 0 1 .038-.04.098.098 0 0 1 .063-.019h.263l-.806 1.155zM24.923 21.47c.127.014.255.025.384.035 1.962-.763 3.622-2.011 4.772-3.588s1.74-3.415 1.695-5.282l-2.162-1.879c.44 1.988.234 4.043-.594 5.935s-2.245 3.547-4.094 4.779z"/><path  d="m24.151 21.383.058.01c1.975-1.228 3.482-2.942 4.323-4.921s.981-4.133.4-6.181l-3.08-2.676c1.246 2.2 1.747 4.661 1.446 7.098s-1.393 4.75-3.147 6.67zM34.596 14.841c-.523 2.052-1.794 3.902-3.624 5.276-.534.404-1.111.763-1.722 1.074 1.49-.38 2.859-1.053 4.003-1.966s2.03-2.042 2.592-3.3l-1.249-1.084z"/><path  d="m34.106 14.539-1.778-1.545c-.034 1.762-.61 3.483-1.669 4.986s-2.562 2.731-4.352 3.559h.009c.399 0 .798-.021 1.194-.062 1.673-.593 3.151-1.537 4.303-2.748s1.94-2.65 2.295-4.189zM24.409 6.486 22.287 4.64c-1.897.637-3.528 1.756-4.68 3.212s-1.772 3.179-1.778 4.946c.007 1.952.763 3.846 2.149 5.383s3.322 2.628 5.501 3.101c1.946-2.06 3.085-4.605 3.252-7.266s-.647-5.299-2.323-7.53zM39.008 14.255c-.008-2.316-1.07-4.535-2.955-6.173s-4.439-2.561-7.105-2.567a11.3 11.3 0 0 0-3.602.582l12.99 11.286a7.647 7.647 0 0 0 .672-3.128z"/></symbol><symbol id="icon-Logo-4" viewBox="0 0 57 32"><path  d="M12.878 11.255h-.002c-1.279 0-2.316.921-2.316 2.058v.001c0 1.137 1.037 2.058 2.316 2.058h.002c1.279 0 2.316-.921 2.316-2.058v-.001c0-1.137-1.037-2.058-2.316-2.058zM29.971 10.597c-.004-1.579-.711-3.092-1.967-4.208s-2.958-1.745-4.735-1.749c-1.777.003-3.48.631-4.737 1.748s-1.964 2.63-1.968 4.209v8.706s13.405-1.327 13.406-8.704v-.001zM5.867 22.16c.003 1.098.496 2.151 1.369 2.928s2.058 1.215 3.294 1.218c1.236-.003 2.42-.441 3.294-1.218s1.366-1.829 1.37-2.927v-6.057s-9.327.924-9.327 6.056zm4.663 1.085c-.242 0-.478-.064-.678-.183s-.357-.289-.45-.487c-.092-.198-.117-.417-.069-.627s.163-.404.334-.556c.171-.152.388-.255.625-.297s.482-.02.706.062c.223.082.414.221.548.4s.206.388.206.603c.001.143-.031.284-.092.417s-.151.252-.264.353c-.114.101-.248.182-.397.236s-.308.083-.468.083v-.004zM19.956 22.647h-.9v.93h-.469v-2.275h1.481v.38h-1.012v.588h.9v.378zm2.253-.156c0 .224-.04.42-.119.589a.893.893 0 0 1-.847.528c-.189 0-.357-.045-.505-.136s-.262-.22-.344-.387a1.344 1.344 0 0 1-.123-.581v-.112c0-.224.04-.421.12-.591a.895.895 0 0 1 .848-.529c.189 0 .358.046.505.137a.888.888 0 0 1 .342.392c.081.17.122.366.122.589v.102zm-.475-.103c0-.238-.043-.42-.128-.544s-.207-.186-.366-.186a.416.416 0 0 0-.364.184c-.085.122-.129.301-.13.538v.111c0 .232.043.412.128.541s.208.192.369.192a.415.415 0 0 0 .363-.184c.084-.124.127-.304.128-.541v-.111zm1.996.592a.237.237 0 0 0-.094-.203 1.203 1.203 0 0 0-.337-.15 2.418 2.418 0 0 1-.386-.156c-.258-.14-.387-.328-.387-.564 0-.123.034-.232.103-.328a.688.688 0 0 1 .298-.227c.13-.054.276-.081.438-.081.163 0 .307.03.434.089a.662.662 0 0 1 .401.614h-.469c0-.104-.033-.185-.098-.242s-.158-.087-.277-.087a.426.426 0 0 0-.267.073.225.225 0 0 0-.095.191c0 .074.037.136.111.186.075.05.185.097.33.141.267.08.461.18.583.298s.183.267.183.444a.55.55 0 0 1-.223.464c-.149.111-.349.167-.602.167-.175 0-.334-.032-.478-.095-.144-.065-.254-.153-.33-.264s-.113-.241-.113-.388h.47c0 .251.15.377.45.377a.442.442 0 0 0 .261-.067.222.222 0 0 0 .094-.191zm2.501-1.298h-.697v1.895h-.469v-1.895h-.687v-.38h1.853v.38zm1.638.909h-.9v.609h1.056v.377H26.5v-2.275h1.522v.38h-1.053v.542h.9v.367zm1.273.153h-.373v.833H28.3v-2.275h.845c.269 0 .476.06.622.18s.219.289.219.508a.697.697 0 0 1-.102.389.689.689 0 0 1-.305.247l.492.93v.022h-.503l-.427-.833zm-.373-.379h.378c.118 0 .209-.03.273-.089a.321.321 0 0 0 .097-.248.343.343 0 0 0-.092-.253c-.06-.061-.154-.092-.28-.092h-.377v.683zm2.84.41v.802h-.469v-2.275h.887c.171 0 .321.031.45.094a.703.703 0 0 1 .405.659.655.655 0 0 1-.23.528c-.152.128-.363.192-.633.192h-.411zm0-.379h.419c.124 0 .218-.029.283-.088.066-.058.098-.142.098-.25 0-.111-.033-.202-.098-.27s-.156-.104-.272-.106h-.43v.714zm2.966.195h-.9v.609h1.056v.377h-1.525v-2.275h1.522v.38h-1.053v.542h.9v.367zm2.175-.909h-.697v1.895h-.469v-1.895h-.688v-.38h1.853v.38zm1.637.909h-.9v.609h1.056v.377h-1.525v-2.275h1.522v.38h-1.053v.542h.9v.367zm1.274.153h-.373v.833h-.469v-2.275h.845c.269 0 .476.06.622.18s.219.289.219.508a.697.697 0 0 1-.102.389.689.689 0 0 1-.305.247l.492.93v.022h-.503l-.427-.833zm-.374-.379h.378c.118 0 .209-.03.273-.089a.321.321 0 0 0 .097-.248.343.343 0 0 0-.092-.253c-.06-.061-.154-.092-.28-.092h-.377v.683zm2.755.615a.237.237 0 0 0-.094-.203 1.203 1.203 0 0 0-.337-.15 2.418 2.418 0 0 1-.386-.156c-.258-.14-.388-.328-.388-.564 0-.123.034-.232.103-.328a.688.688 0 0 1 .298-.227c.13-.054.276-.081.438-.081.163 0 .307.03.434.089a.675.675 0 0 1 .295.248.646.646 0 0 1 .106.366h-.469c0-.104-.033-.185-.098-.242s-.158-.087-.277-.087a.426.426 0 0 0-.267.073.225.225 0 0 0-.095.191c0 .074.037.136.111.186.075.05.185.097.33.141.267.08.461.18.583.298s.183.267.183.444a.548.548 0 0 1-.223.464c-.149.111-.349.167-.602.167-.175 0-.334-.032-.478-.095a.773.773 0 0 1-.33-.264.678.678 0 0 1-.112-.388h.47c0 .251.15.377.45.377a.442.442 0 0 0 .261-.067.222.222 0 0 0 .094-.191z"/></symbol><symbol id="icon-Logo-5" viewBox="0 0 57 32"><path  d="M14.27 23.859c.13.147.199.332.196.521.007.123-.017.247-.07.361s-.132.216-.233.297c-.252.175-.565.26-.881.24h-1.549v-3.302h1.517c.299-.018.596.059.84.219.098.075.176.17.227.277s.074.224.068.341a.725.725 0 0 1-.176.505.839.839 0 0 1-.462.258.897.897 0 0 1 .523.282zm-1.816-.499h.648a.653.653 0 0 0 .412-.11c.049-.04.087-.09.111-.146s.034-.116.028-.176c.005-.06-.005-.12-.029-.175s-.061-.106-.108-.147a.665.665 0 0 0-.425-.111h-.638v.866zm1.124 1.267c.052-.041.093-.093.12-.151s.038-.121.034-.184c.004-.064-.008-.127-.035-.186s-.069-.111-.121-.153a.714.714 0 0 0-.44-.119h-.68v.908h.689a.732.732 0 0 0 .435-.114zM17.371 25.278l-.844-1.291h-.317v1.291h-.726v-3.302h1.374c.346-.022.689.078.957.281.192.179.308.415.327.666s-.061.499-.224.7c-.17.178-.401.296-.655.336l.898 1.32h-.789zm-1.161-1.74h.594c.412 0 .618-.167.618-.5a.458.458 0 0 0-.151-.371.687.687 0 0 0-.467-.134h-.601l.007 1.005zM21.339 24.614h-1.446l-.255.665h-.761l1.328-3.265h.823l1.323 3.265h-.761l-.25-.665zm-.194-.5-.529-1.394-.529 1.394h1.057zM26.305 25.278h-.721l-1.616-2.245v2.245h-.719v-3.302h.719l1.616 2.258v-2.258h.721v3.302zM30.417 24.488a1.501 1.501 0 0 1-.652.582 2.282 2.282 0 0 1-1.013.208h-1.283v-3.302h1.283c.351-.008.698.061 1.013.203.276.127.503.328.652.576a1.78 1.78 0 0 1 0 1.732zm-.824-.079c.206-.219.319-.499.319-.788s-.113-.569-.319-.788a1.326 1.326 0 0 0-.902-.281h-.5v2.137h.5c.329.019.654-.082.902-.281zM21.79 3.609s9.301 3.215 9.103 7.867v7.869s-9.294-3.217-9.1-7.869l-.004-7.867zM39.179 17.503a13.494 13.494 0 0 1 5.909-1.994v-2.463c-2.444.862-4.517 2.426-5.909 4.457z"/><path  d="M38.124 18.245c1.438-2.651 3.93-4.696 6.964-5.715V5.432s-13.245 4.58-12.965 11.205V27.84s.59-.205 1.519-.589c0-.358 0-.719.042-1.082.274-3.076 1.871-5.926 4.44-7.924z"/><path  d="M36.864 22.407c.07-.777.225-1.546.463-2.294-1.599 1.725-2.568 3.866-2.77 6.122-.019.213-.03.426-.035.645a40.466 40.466 0 0 0 2.548-1.229 10.624 10.624 0 0 1-.206-3.244zM37.391 22.447a10.17 10.17 0 0 0 .164 2.938c3.619-1.983 7.685-5.046 7.528-8.748v-.323c-2.585.265-5.004 1.3-6.885 2.946a10.29 10.29 0 0 0-.807 3.188z"/></symbol><symbol id="icon-Logo-6" viewBox="0 0 57 32"><path  d="M28.493 14.618a1.58 1.58 0 0 1-.323-1.061v-1.538c0-.471.107-.83.321-1.075s.581-.367 1.102-.366c.489 0 .836.104 1.042.313.224.266.333.592.308.92v.361h-.875v-.366c.003-.12-.005-.24-.025-.358a.352.352 0 0 0-.125-.213.505.505 0 0 0-.317-.083.533.533 0 0 0-.333.088.412.412 0 0 0-.145.235 1.74 1.74 0 0 0-.034.38v1.866c-.014.18.025.36.112.524.044.055.104.099.175.127s.149.038.226.029a.478.478 0 0 0 .31-.084.375.375 0 0 0 .13-.227c.02-.124.03-.249.027-.374v-.379h.875v.346c.025.342-.082.682-.303.967-.201.228-.544.343-1.047.343s-.884-.122-1.1-.375zM32.137 14.633c-.221-.239-.332-.588-.332-1.05v-1.617c0-.457.11-.802.332-1.037s.591-.351 1.109-.35c.515 0 .882.117 1.103.35.221.235.333.58.333 1.037v1.617c0 .457-.112.807-.337 1.048s-.591.361-1.1.361c-.509 0-.886-.122-1.109-.36zm1.517-.388a.906.906 0 0 0 .105-.479v-1.98a.88.88 0 0 0-.103-.469c-.044-.057-.106-.101-.179-.129s-.152-.037-.231-.027c-.079-.009-.159 0-.231.028s-.135.072-.18.129a.853.853 0 0 0-.105.469v1.99a.888.888 0 0 0 .105.479c.051.05.114.091.185.119a.612.612 0 0 0 .635-.119v-.009zM35.735 10.626h.942l.708 2.984.725-2.984h.917l.092 4.308h-.678l-.072-2.994-.699 2.994h-.544l-.725-3.005-.067 3.005h-.685l.085-4.308zM40.176 10.626h1.468c.846 0 1.268.408 1.268 1.223 0 .781-.445 1.171-1.335 1.17h-.5v1.915h-.906l.005-4.308zm1.254 1.841a.7.7 0 0 0 .498-.136.693.693 0 0 0 .13-.486 1.327 1.327 0 0 0-.044-.391c-.013-.043-.036-.083-.067-.118s-.07-.065-.114-.087a.94.94 0 0 0-.404-.069h-.352v1.287h.352zM44.218 10.626h.973l.998 4.308h-.844l-.197-.993h-.868l-.203.993h-.857l.998-4.308zm.832 2.815-.339-1.808-.339 1.808h.678zM46.996 10.626h.634l1.214 2.457v-2.457h.752v4.308h-.603l-1.221-2.565v2.565h-.777l.002-4.308zM51.357 13.291l-1.009-2.659h.85l.616 1.708.578-1.708h.832l-.997 2.659v1.642h-.87v-1.642zM29.892 16.817v.225h-.739v1.75h-.31v-1.75H28.1v-.225h1.792zM32.209 18.793h-.239a.105.105 0 0 1-.067-.019.102.102 0 0 1-.04-.045l-.214-.469h-1.026l-.214.469a.119.119 0 0 1-.033.053.112.112 0 0 1-.067.019h-.239l.906-1.976h.315l.917 1.968zm-1.5-.734h.855l-.362-.804a1.426 1.426 0 0 1-.067-.186 4.03 4.03 0 0 0-.034.105l-.033.083-.359.802zM33.771 18.599a1.018 1.018 0 0 0 .315-.023.961.961 0 0 0 .13-.036c.04-.014.08-.031.121-.048v-.444h-.362c-.009 0-.018-.001-.026-.003s-.016-.007-.023-.012c-.006-.004-.011-.01-.014-.016s-.005-.013-.004-.02v-.152h.703v.757a1.407 1.407 0 0 1-.609.202 2.591 2.591 0 0 1-.264.012 1.41 1.41 0 0 1-.457-.073 1.104 1.104 0 0 1-.362-.206.956.956 0 0 1-.234-.313.99.99 0 0 1-.083-.41.907.907 0 0 1 .316-.726c.103-.089.227-.159.362-.205.155-.05.32-.075.486-.074.084 0 .169.006.252.017a1.21 1.21 0 0 1 .397.128c.056.031.108.065.158.103l-.087.122c-.007.011-.017.021-.029.027s-.027.01-.041.01a.118.118 0 0 1-.056-.016 1.344 1.344 0 0 1-.089-.047.727.727 0 0 0-.121-.053 1.171 1.171 0 0 0-.167-.044 1.362 1.362 0 0 0-.23-.017 1.06 1.06 0 0 0-.35.055.704.704 0 0 0-.435.402.924.924 0 0 0 0 .659.756.756 0 0 0 .446.405c.115.034.237.047.359.039zM36.659 18.567h.989v.225h-1.292v-1.976h.31l-.007 1.75zM38.678 18.792h-.31v-1.976h.31v1.976zM39.83 16.826a.151.151 0 0 1 .047.036l1.324 1.489a.41.41 0 0 1 0-.07v-1.472h.27v1.984h-.156a.14.14 0 0 1-.067-.011.184.184 0 0 1-.049-.038l-1.323-1.488v1.536h-.259v-1.976h.161c.017 0 .035.003.051.009zM43.753 16.817v.217h-1.098v.652h.89v.21h-.89v.674h1.098v.217h-1.417v-1.971h1.417zM11.286 4.616l13.757 3.372v11.818l-13.757-3.371V4.616zm-.882-1.007V17.01l15.52 3.806V7.417L10.404 3.61z"/><path  d="M18.722 27.036 3.2 23.227V9.828l15.522 3.807v13.401z"/><path  d="m10.661 4.465 13.578 3.33-5.774 4.987L4.885 9.45l5.776-4.985zm-.257-.856L3.2 9.828l15.522 3.807 7.202-6.219-15.52-3.807zM19.595 26.282l6.329-5.465-6.329-1.553v7.018z"/></symbol><symbol id="icon-mail" viewBox="0 0 43 32"><path  d="M38.667 0H4C1.794 0 0 1.794 0 4v24c0 2.206 1.794 4 4 4h34.667c2.206 0 4-1.794 4-4V4c0-2.206-1.794-4-4-4zm0 2.667c.181 0 .353.038.511.103L21.334 18.236 3.49 2.77a1.32 1.32 0 0 1 .511-.103h34.667zm0 26.666H4A1.334 1.334 0 0 1 2.667 28V5.587L20.46 21.008a1.335 1.335 0 0 0 1.748 0L40.001 5.587V28c0 .736-.598 1.333-1.333 1.333z"/></symbol><symbol id="icon-smartphone" viewBox="0 0 20 32"><path  d="M17 0H3C1.346 0 0 1.346 0 3v26c0 1.654 1.346 3 3 3h14c1.654 0 3-1.346 3-3V3c0-1.654-1.346-3-3-3zM3 2h14a1 1 0 0 1 1 1v21H2V3a1 1 0 0 1 1-1zm14 28H3a1 1 0 0 1-1-1v-3h16v3a1 1 0 0 1-1 1z"/><path fill="#757575" style="fill:var(--color6, #757575)" d="M4.707 27.478c.391.365.391.956 0 1.321s-1.024.365-1.414 0c-.391-.365-.391-.956 0-1.321s1.024-.365 1.414 0z"/></symbol>
<symbol id="icon-twiter" viewBox="0 0 32 32"><path  d="M32 16c0 4.418-1.791 8.418-4.686 11.314S20.419 32 16 32s-8.418-1.791-11.314-4.686C1.791 24.419 0 20.419 0 16S1.791 7.582 4.686 4.686 11.581 0 16 0c4.418 0 8.418 1.791 11.314 4.686S32 11.581 32 16z"/><path fill="#afb1b8" style="fill:var(--color5, #afb1b8)" d="M23.273 11.49a6.248 6.248 0 0 1-1.718.471 2.967 2.967 0 0 0 1.312-1.648 5.963 5.963 0 0 1-1.891.722 2.981 2.981 0 0 0-5.158 2.039c0 .236.02.464.069.68a8.439 8.439 0 0 1-6.146-3.119 2.985 2.985 0 0 0 .917 3.985 2.943 2.943 0 0 1-1.347-.367v.033a2.996 2.996 0 0 0 2.389 2.93 2.992 2.992 0 0 1-.782.098 2.64 2.64 0 0 1-.565-.051 3.01 3.01 0 0 0 2.786 2.077 5.991 5.991 0 0 1-3.697 1.272 5.59 5.59 0 0 1-.714-.041 8.393 8.393 0 0 0 4.575 1.338c5.487 0 8.487-4.545 8.487-8.485 0-.132-.005-.259-.011-.385a5.95 5.95 0 0 0 1.495-1.548z"/></symbol><symbol id="icon-twiter-footer" viewBox="0 0 32 32"><path  d="M32 16c0 4.418-1.791 8.418-4.686 11.314S20.419 32 16 32s-8.418-1.791-11.314-4.686C1.791 24.419 0 20.419 0 16S1.791 7.582 4.686 4.686C7.581 1.791 11.581 0 16 0s8.418 1.791 11.314 4.686A15.95 15.95 0 0 1 32 16z"/><path fill="#fff" style="fill:var(--color4, #fff)" d="M23.273 11.49a6.248 6.248 0 0 1-1.718.471 2.967 2.967 0 0 0 1.312-1.648 5.963 5.963 0 0 1-1.891.722 2.981 2.981 0 0 0-5.158 2.039c0 .236.02.464.069.68a8.439 8.439 0 0 1-6.146-3.119 2.985 2.985 0 0 0 .917 3.985 2.943 2.943 0 0 1-1.347-.367v.033a2.996 2.996 0 0 0 2.389 2.93 2.992 2.992 0 0 1-.782.098 2.64 2.64 0 0 1-.565-.051 3.01 3.01 0 0 0 2.786 2.077 5.991 5.991 0 0 1-3.697 1.272 5.59 5.59 0 0 1-.714-.041 8.393 8.393 0 0 0 4.575 1.338c5.487 0 8.487-4.545 8.487-8.485 0-.132-.005-.259-.011-.385a5.95 5.95 0 0 0 1.495-1.548z"/></symbol>
<!-- New icon -->
<symbol id="icon-facebook-new" viewBox="0 0 32 32">
<path  d="M21.328 5.312h2.923v-5.088c-1.232-0.143-2.66-0.224-4.108-0.224-0.052 0-0.104 0-0.156 0l0.008-0c-4.213 0-7.099 2.65-7.099 7.52v4.48h-4.646v5.688h4.646v14.312h5.699v-14.31h4.459l0.707-5.688h-5.168v-3.922c0-1.643 0.443-2.768 2.734-2.768z"></path>
</symbol>
<symbol id="icon-instagram-new" viewBox="0 0 32 32">
<path   d="M31.968 9.408c-0.074-1.701-0.349-2.869-0.742-3.882-0.424-1.111-1.054-2.059-1.85-2.837l-0.001-0.001c-0.78-0.792-1.724-1.419-2.778-1.827l-0.054-0.018c-1.019-0.394-2.181-0.667-3.882-0.742-1.712-0.082-2.256-0.101-6.602-0.101-4.344 0-4.888 0.019-6.595 0.094-1.699 0.074-2.869 0.349-3.88 0.742-1.112 0.424-2.060 1.054-2.839 1.85l-0.001 0.001c-0.791 0.78-1.418 1.724-1.825 2.778l-0.018 0.054c-0.395 1.019-0.669 2.181-0.744 3.882-0.082 1.712-0.101 2.256-0.101 6.602 0 4.344 0.019 4.888 0.094 6.595 0.075 1.701 0.35 2.869 0.744 3.882 0.426 1.11 1.055 2.057 1.849 2.837l0.001 0.001c0.8 0.813 1.77 1.443 2.832 1.843 1.019 0.395 2.182 0.67 3.882 0.744 1.707 0.075 2.251 0.094 6.595 0.094 4.346 0 4.89-0.019 6.595-0.094 1.701-0.074 2.869-0.349 3.882-0.742 2.157-0.85 3.833-2.526 4.664-4.628l0.019-0.055c0.394-1.019 0.669-2.182 0.744-3.882 0.075-1.707 0.093-2.251 0.093-6.595s-0.006-4.888-0.080-6.595zM29.088 22.474c-0.070 1.563-0.333 2.406-0.55 2.97-0.552 1.399-1.64 2.486-3.004 3.024l-0.036 0.012c-0.56 0.219-1.411 0.482-2.968 0.55-1.688 0.075-2.194 0.094-6.464 0.094-4.269 0-4.782-0.019-6.464-0.094-1.563-0.069-2.406-0.331-2.97-0.55-0.721-0.269-1.334-0.676-1.836-1.192l-0.001-0.001c-0.517-0.503-0.924-1.117-1.184-1.803l-0.011-0.034c-0.218-0.563-0.48-1.413-0.549-2.97-0.075-1.688-0.094-2.195-0.094-6.464 0-4.27 0.019-4.784 0.094-6.464 0.069-1.563 0.331-2.406 0.549-2.97 0.269-0.722 0.678-1.337 1.198-1.837l0.002-0.002c0.504-0.517 1.119-0.923 1.806-1.182l0.034-0.011c0.56-0.219 1.411-0.48 2.968-0.55 1.688-0.074 2.195-0.093 6.464-0.093 4.275 0 4.782 0.019 6.464 0.093 1.563 0.069 2.406 0.331 2.97 0.55 0.693 0.256 1.325 0.662 1.837 1.194 0.531 0.52 0.938 1.144 1.195 1.84 0.218 0.56 0.48 1.411 0.549 2.968 0.075 1.688 0.094 2.194 0.094 6.464 0 4.269-0.019 4.768-0.094 6.458z"></path>
<path  d="M16.059 7.782c-4.539 0.002-8.218 3.682-8.219 8.221v0c0.091 4.471 3.737 8.060 8.221 8.060s8.13-3.589 8.221-8.052l0-0.009c-0.001-4.54-3.681-8.22-8.221-8.221h-0zM16.059 21.334c-2.945-0-5.332-2.388-5.332-5.333s2.388-5.333 5.333-5.333c0 0 0.001 0 0.001 0h-0c2.946 0 5.334 2.388 5.334 5.334s-2.388 5.334-5.334 5.334v0zM26.525 7.458c0 1.060-0.86 1.92-1.92 1.92s-1.92-0.86-1.92-1.92v0c0-1.060 0.86-1.92 1.92-1.92s1.92 0.86 1.92 1.92v0z"></path>
</symbol>
<symbol id="icon-linkedin-new" viewBox="0 0 32 32">
<path  d="M31.992 32h0.008v-11.738c0-5.741-1.237-10.163-7.947-10.163-3.227 0-5.392 1.77-6.277 3.45h-0.093v-2.914h-6.365v21.363h6.627v-10.578c0-2.786 0.528-5.48 3.978-5.48 3.398 0 3.448 3.179 3.448 5.658v10.402h6.621zM0.528 10.635h6.635v21.365h-6.635v-21.365zM3.843 0c-2.123 0-3.843 1.721-3.843 3.843v0c0 2.12 1.722 3.878 3.843 3.878 2.12 0 3.842-1.757 3.842-3.878s-1.72-3.841-3.841-3.843h-0z"></path>
</symbol>
<symbol id="icon-twitter--new" viewBox="0 0 32 32">
<path d="M32 6.078c-1.1 0.493-2.376 0.857-3.713 1.028l-0.068 0.007c1.36-0.817 2.382-2.078 2.873-3.579l0.013-0.046c-1.197 0.722-2.591 1.273-4.076 1.573l-0.084 0.014c-1.2-1.279-2.9-2.076-4.787-2.076-3.622 0-6.558 2.936-6.558 6.558 0 0.001 0 0.003 0 0.004v-0c0 0.52 0.043 1.021 0.152 1.496-5.454-0.266-10.28-2.88-13.522-6.861-0.564 0.949-0.899 2.092-0.902 3.313v0.001c0 2.272 1.171 4.286 2.914 5.451-1.091-0.030-2.107-0.325-2.994-0.823l0.033 0.017v0.072c0.003 3.165 2.236 5.807 5.213 6.44l0.043 0.008c-0.499 0.136-1.071 0.215-1.662 0.215-0.020 0-0.041-0-0.061-0l0.003 0c-0.419 0-0.843-0.024-1.242-0.112 0.85 2.598 3.261 4.509 6.13 4.57-2.215 1.746-5.045 2.8-8.122 2.8-0.004 0-0.008 0-0.013 0h0.001c-0.018 0-0.040 0-0.062 0-0.531 0-1.055-0.034-1.569-0.099l0.061 0.006c2.826 1.846 6.287 2.944 10.004 2.944 0.021 0 0.042-0 0.063-0h-0.003c12.072 0 18.672-10 18.672-18.669 0-0.288-0.010-0.57-0.024-0.848 1.299-0.936 2.39-2.064 3.258-3.355l0.030-0.047z"></path>
</symbol>



<symbol id="icon-Logo-1-new" viewBox="0 0 57 32">
<path  d="M20.267 3.733l3.738 3.538-6.938-0.004v17.167h18.133v-6.564l3.733 3.534v-17.671h-18.667zM35.036 17.455l-10.597-10.032h10.597v10.032zM31.746 21.923h-11.81v-11.545h0.835v10.763h10.975v0.781zM22.725 26.72l-0.436 0.899-0.436-0.899h-0.366l0.637 1.198v0.698h0.331v-0.698l0.635-1.198h-0.364zM23.274 28.616l0.154-0.442h0.734l0.155 0.442h0.344l-0.717-1.896h-0.296l-0.716 1.896h0.342zM23.794 27.123l0.275 0.786h-0.549l0.275-0.787zM25.531 27.863c-0.045 0.067-0.071 0.149-0.071 0.238 0 0.001 0 0.002 0 0.003v-0c0 0.16 0.056 0.29 0.168 0.389s0.263 0.149 0.45 0.149c0.188 0 0.349-0.051 0.485-0.153l0.107 0.126h0.367l-0.278-0.33c0.109-0.149 0.164-0.341 0.164-0.574h-0.275c0 0.128-0.027 0.244-0.079 0.348l-0.366-0.432 0.129-0.094c0.078-0.053 0.144-0.119 0.195-0.195l0.002-0.003c0.038-0.061 0.060-0.136 0.060-0.216 0-0.001 0-0.002 0-0.003v0c0-0.002 0-0.005 0-0.007 0-0.117-0.051-0.221-0.132-0.293l-0-0c-0.084-0.076-0.197-0.123-0.32-0.123-0.007 0-0.013 0-0.020 0l0.001-0c-0.153 0-0.274 0.044-0.364 0.13s-0.135 0.203-0.135 0.352c0 0.061 0.014 0.123 0.043 0.189 0.030 0.065 0.082 0.144 0.155 0.237-0.14 0.101-0.235 0.188-0.282 0.261zM26.387 28.283c-0.081 0.066-0.185 0.106-0.299 0.107h-0c-0.005 0-0.010 0-0.015 0-0.082 0-0.156-0.031-0.212-0.083l0 0c-0.052-0.052-0.085-0.123-0.085-0.203 0-0.004 0-0.007 0-0.011l-0 0.001c0-0.101 0.052-0.192 0.156-0.271l0.041-0.029 0.414 0.489zM26.047 27.443c-0.090-0.11-0.134-0.202-0.134-0.275 0-0.063 0.019-0.116 0.055-0.157 0.034-0.039 0.084-0.063 0.139-0.063 0.003 0 0.005 0 0.008 0h-0c0.002-0 0.004-0 0.007-0 0.052 0 0.1 0.020 0.135 0.054l-0-0c0.037 0.035 0.056 0.077 0.056 0.126 0 0.002 0 0.005 0 0.007 0 0.071-0.031 0.134-0.080 0.177l-0 0-0.041 0.032-0.145 0.099zM29.133 28.473c0.13-0.114 0.205-0.272 0.224-0.474h-0.328c-0.018 0.135-0.059 0.232-0.124 0.29s-0.163 0.087-0.292 0.087c-0.141 0-0.249-0.054-0.323-0.162s-0.11-0.264-0.11-0.469v-0.167c0.002-0.203 0.041-0.355 0.117-0.46 0.077-0.105 0.188-0.157 0.331-0.157 0.123 0 0.217 0.030 0.28 0.091s0.104 0.158 0.12 0.294h0.328c-0.021-0.207-0.095-0.368-0.222-0.482s-0.296-0.171-0.506-0.171c-0.155 0-0.292 0.037-0.411 0.111-0.119 0.076-0.213 0.183-0.27 0.31l-0.002 0.005c-0.060 0.133-0.096 0.288-0.096 0.451 0 0.008 0 0.016 0 0.023l-0-0.001v0.177c0.003 0.174 0.035 0.327 0.098 0.46s0.151 0.234 0.266 0.306c0.116 0.071 0.249 0.107 0.4 0.107 0.216 0 0.389-0.056 0.519-0.169zM31.069 28.207c0.064-0.141 0.097-0.304 0.097-0.49v-0.105c0-0.006 0-0.013 0-0.020 0-0.169-0.036-0.329-0.102-0.473l0.003 0.007c-0.060-0.134-0.156-0.243-0.274-0.318l-0.003-0.002c-0.119-0.075-0.256-0.112-0.411-0.112s-0.291 0.037-0.411 0.113c-0.119 0.075-0.211 0.182-0.277 0.324-0.062 0.137-0.098 0.297-0.098 0.466 0 0.008 0 0.016 0 0.025l-0-0.001v0.107c0.001 0.181 0.034 0.341 0.099 0.48 0.066 0.139 0.159 0.246 0.279 0.322 0.121 0.075 0.258 0.112 0.411 0.112 0.156 0 0.293-0.037 0.412-0.112 0.119-0.076 0.212-0.183 0.276-0.323zM30.716 27.135c0.080 0.112 0.119 0.274 0.119 0.484v0.099c0 0.213-0.039 0.376-0.118 0.487-0.078 0.111-0.19 0.167-0.336 0.167-0.004 0-0.009 0-0.014 0-0.134 0-0.253-0.067-0.324-0.17l-0.001-0.001c-0.081-0.114-0.121-0.275-0.121-0.483v-0.109c0.002-0.204 0.043-0.362 0.122-0.473 0.071-0.102 0.188-0.168 0.321-0.168 0.005 0 0.010 0 0.014 0l-0.001-0c0.146 0 0.259 0.056 0.338 0.168z"></path>
</symbol>
<symbol id="icon-Logo-2-new" viewBox="0 0 57 32">
<path  d="M26.727 3.165h-0.073c-0.112-0.007-0.224-0.010-0.336-0.012h-0.243c-0.212 0-0.428 0.005-0.642 0.016-0.007-0.001-0.016-0.001-0.024-0.001s-0.017 0-0.025 0.001l0.001-0c-2.059 0.12-3.971 0.635-5.699 1.47l0.090-0.039-0.23 0.111v11.809l0.54-0.183c0.474-0.163 0.978-0.309 1.5-0.445 1.29-0.345 2.775-0.553 4.305-0.573l0.012-0v1.551c-0.193 0.001-0.38 0.006-0.568 0.016h-0.045c-1.212 0.068-2.348 0.25-3.442 0.537l0.12-0.027c-1.503 0.382-2.82 0.91-4.044 1.586l0.087-0.044v-15.145c1.195-0.711 2.578-1.29 4.042-1.665l0.11-0.024c1.173-0.315 2.52-0.499 3.909-0.505h0.231c0.273 0.007 0.539 0.019 0.788 0.038 0.658 0.046 1.31 0.15 1.949 0.311v1.527c-0.544-0.133-1.189-0.234-1.849-0.282l-0.039-0.002-0.039-0.003c-0.132-0.011-0.263-0.022-0.386-0.022zM29.415 4.726c0.339 0.026 0.69 0.038 1.044 0.038 1.464-0.006 2.881-0.198 4.231-0.554l-0.117 0.026c1.502-0.383 2.819-0.912 4.043-1.587l-0.087 0.044v14.875c-1.195 0.71-2.578 1.289-4.042 1.665l-0.11 0.024c-1.173 0.314-2.52 0.498-3.91 0.503h-0.004c-0.029 0-0.062 0-0.096 0-1.020 0-2.010-0.128-2.955-0.368l0.083 0.018v-14.972c0.229 0.053 0.466 0.102 0.706 0.142 0.394 0.067 0.81 0.115 1.214 0.145zM36.985 4.842l-0.54 0.181c-0.496 0.167-0.997 0.316-1.5 0.449-1.344 0.36-2.888 0.569-4.48 0.575h-0.004c-0.352 0-0.676-0.010-0.989-0.030l-0.43-0.028v12.148l0.37 0.032c0.342 0.030 0.696 0.045 1.052 0.045 1.257-0.006 2.473-0.172 3.631-0.48l-0.1 0.023c1.059-0.269 1.977-0.608 2.848-1.031l-0.088 0.039 0.23-0.111v-11.812z"></path>
<path  d="M19.060 24.113c-0.145-0.15-0.348-0.243-0.572-0.243-0.010 0-0.020 0-0.030 0.001l0.001-0c-0.004-0-0.008-0-0.012-0-0.121 0-0.236 0.024-0.34 0.067l0.006-0.002c-0.205 0.082-0.364 0.243-0.442 0.444l-0.002 0.005c-0.043 0.107-0.063 0.22-0.062 0.335v2.023c-0.005 0.142 0.022 0.284 0.079 0.415 0.048 0.104 0.117 0.196 0.203 0.271 0.081 0.068 0.175 0.117 0.277 0.144 0.099 0.027 0.201 0.042 0.302 0.042 0.113 0.001 0.224-0.023 0.326-0.070 0.304-0.135 0.512-0.434 0.512-0.781v-0.226h-0.53v0.18c0 0.004 0 0.008 0 0.012 0 0.060-0.011 0.118-0.032 0.171l0.001-0.003c-0.018 0.045-0.044 0.083-0.077 0.114l-0 0c-0.061 0.047-0.137 0.076-0.221 0.077h-0c-0.009 0.001-0.020 0.002-0.031 0.002-0.089 0-0.168-0.043-0.216-0.11l-0.001-0.001c-0.044-0.071-0.071-0.158-0.071-0.251 0-0.007 0-0.014 0-0.021l-0 0.001v-1.887c-0.003-0.105 0.019-0.208 0.065-0.302 0.049-0.075 0.132-0.124 0.227-0.124 0.011 0 0.022 0.001 0.033 0.002l-0.001-0c0.003-0 0.006-0 0.010-0 0.092 0 0.174 0.045 0.226 0.114l0.001 0.001c0.055 0.071 0.088 0.162 0.088 0.26 0 0.004-0 0.008-0 0.012v-0.001 0.175h0.524v-0.206c0-0.003 0-0.006 0-0.009 0-0.124-0.024-0.243-0.067-0.352l0.002 0.006c-0.041-0.111-0.102-0.205-0.177-0.285l0 0zM22.202 24.091c-0.161-0.137-0.371-0.221-0.601-0.223h-0c-0.108 0-0.215 0.020-0.316 0.057-0.218 0.078-0.391 0.239-0.483 0.443l-0.002 0.005c-0.053 0.123-0.080 0.257-0.077 0.392v1.94c-0.004 0.137 0.023 0.272 0.077 0.397 0.048 0.105 0.117 0.197 0.205 0.271 0.081 0.075 0.176 0.133 0.279 0.171 0.101 0.037 0.208 0.057 0.316 0.057 0.231-0.001 0.442-0.087 0.603-0.229l-0.001 0.001c0.084-0.076 0.152-0.168 0.199-0.271 0.054-0.125 0.081-0.261 0.077-0.397v-1.941c0-0.005 0-0.011 0-0.017 0-0.135-0.029-0.264-0.080-0.381l0.002 0.006c-0.049-0.111-0.117-0.205-0.199-0.283l-0-0zM21.955 26.706c0.001 0.009 0.001 0.019 0.001 0.030 0 0.099-0.041 0.188-0.106 0.251l-0 0c-0.067 0.056-0.154 0.091-0.249 0.091s-0.182-0.034-0.25-0.091l0.001 0c-0.066-0.063-0.106-0.152-0.106-0.25 0-0.011 0-0.022 0.002-0.032l-0 0.001v-1.941c-0.001-0.009-0.001-0.019-0.001-0.030 0-0.098 0.041-0.187 0.106-0.25l0-0c0.067-0.056 0.154-0.091 0.249-0.091s0.182 0.034 0.25 0.091l-0.001-0c0.066 0.063 0.106 0.152 0.106 0.25 0 0.011-0 0.021-0.001 0.032l0-0.001v1.941zM26.329 27.573v-3.675h-0.508l-0.668 1.945h-0.009l-0.674-1.945h-0.503v3.674h0.525v-2.235h0.010l0.514 1.58h0.262l0.518-1.58h0.010v2.235h0.525zM29.311 24.157c-0.081-0.091-0.183-0.16-0.297-0.201-0.108-0.036-0.232-0.057-0.361-0.057-0.007 0-0.014 0-0.021 0h-0.779v3.675h0.524v-1.435h0.269c0.164 0.007 0.326-0.027 0.473-0.1 0.12-0.068 0.217-0.163 0.286-0.278l0.002-0.003c0.060-0.098 0.101-0.206 0.12-0.32 0.018-0.116 0.028-0.249 0.028-0.385 0-0.012-0-0.023-0-0.035l0 0.002c0.005-0.176-0.012-0.353-0.051-0.525-0.037-0.132-0.104-0.246-0.193-0.338l0 0zM29.041 25.277c-0.002 0.070-0.020 0.136-0.050 0.194l0.001-0.003c-0.030 0.056-0.077 0.101-0.133 0.128l-0.002 0.001c-0.065 0.030-0.14 0.047-0.22 0.047-0.010 0-0.019-0-0.028-0.001l0.001 0h-0.239v-1.249h0.27c0.008-0 0.016-0.001 0.025-0.001 0.077 0 0.149 0.017 0.214 0.048l-0.003-0.001c0.054 0.031 0.096 0.078 0.122 0.134l0.001 0.002c0.029 0.065 0.044 0.134 0.046 0.205v0.244c0 0.085 0.005 0.174 0 0.252h-0.005zM31.791 23.899h-0.429l-0.81 3.675h0.524l0.154-0.789h0.714l0.154 0.789h0.523l-0.829-3.675zM31.308 26.283l0.258-1.332h0.010l0.256 1.332h-0.523zM35.173 26.112h-0.010l-0.79-2.213h-0.503v3.675h0.523v-2.21h0.011l0.8 2.209h0.493v-3.674h-0.523v2.213zM38.372 23.899l-0.421 1.461h-0.011l-0.421-1.461h-0.554l0.719 2.122v1.553h0.524v-1.553l0.719-2.121h-0.555zM17.6 28.611h0.252v0.708h0.171v-0.708h0.251v-0.145h-0.674v0.146zM19.721 28.465l-0.331 0.853h0.182l0.070-0.194h0.34l0.073 0.194h0.187l-0.339-0.853h-0.182zM19.694 28.981l0.116-0.316 0.116 0.316h-0.232zM21.818 29.004h0.197v0.11c-0.055 0.044-0.126 0.072-0.203 0.072h-0c-0.004 0-0.008 0-0.012 0-0.068 0-0.129-0.032-0.169-0.081l-0-0c-0.040-0.057-0.063-0.127-0.063-0.203 0-0.007 0-0.013 0.001-0.020l-0 0.001c0-0.19 0.082-0.285 0.245-0.285 0.006-0.001 0.012-0.001 0.018-0.001 0.084 0 0.155 0.058 0.174 0.136l0 0.001 0.169-0.033c-0.036-0.166-0.156-0.251-0.362-0.251-0.003-0-0.007-0-0.011-0-0.11 0-0.211 0.042-0.287 0.11l0-0c-0.076 0.075-0.124 0.18-0.124 0.296 0 0.011 0 0.022 0.001 0.033l-0-0.001c-0 0.006-0 0.013-0 0.020 0 0.115 0.041 0.22 0.11 0.301l-0.001-0.001c0.075 0.078 0.181 0.126 0.297 0.126 0.009 0 0.018-0 0.027-0.001l-0.001 0c0.004 0 0.009 0 0.014 0 0.134 0 0.257-0.052 0.348-0.137l-0 0v-0.336h-0.37v0.144zM23.959 28.465h-0.173v0.853h0.597v-0.145h-0.425v-0.708zM25.77 28.465h-0.173v0.853h0.173v-0.853zM27.539 29.035l-0.349-0.57h-0.167v0.853h0.16v-0.557l0.343 0.557h0.172v-0.853h-0.158v0.57zM29.14 28.942h0.425v-0.145h-0.425v-0.187h0.457v-0.146h-0.63v0.853h0.647v-0.145h-0.475v-0.231zM33.020 28.802h-0.336v-0.336h-0.171v0.853h0.171v-0.373h0.336v0.373h0.172v-0.853h-0.172v0.337zM34.629 28.942h0.427v-0.145h-0.427v-0.187h0.459v-0.146h-0.629v0.853h0.646v-0.145h-0.475v-0.231zM36.812 28.943c0.149-0.023 0.224-0.102 0.224-0.237 0.001-0.007 0.001-0.015 0.001-0.024 0-0.068-0.033-0.128-0.085-0.166l-0.001-0c-0.063-0.032-0.137-0.051-0.216-0.051-0.012 0-0.023 0-0.035 0.001l0.002-0h-0.362v0.853h0.172v-0.357h0.034c0.004-0 0.009-0 0.014-0 0.034 0 0.066 0.007 0.094 0.020l-0.001-0.001c0.025 0.015 0.046 0.037 0.061 0.062l0.186 0.271h0.205l-0.104-0.166c-0.047-0.083-0.111-0.152-0.187-0.203l-0.002-0.001zM36.639 28.825h-0.126v-0.214h0.135c0.011-0.001 0.023-0.001 0.036-0.001 0.049 0 0.097 0.008 0.141 0.023l-0.003-0.001c0.023 0.021 0.037 0.050 0.037 0.083 0 0.037-0.018 0.069-0.045 0.090l-0 0c-0.043 0.014-0.092 0.021-0.142 0.021-0.011 0-0.022-0-0.033-0.001l0.002 0zM38.459 28.942h0.425v-0.145h-0.425v-0.187h0.459v-0.146h-0.631v0.853h0.647v-0.145h-0.475v-0.231z"></path>
</symbol>
<symbol id="icon-Logo-3-new" viewBox="0 0 57 32">
<path  d="M19.417 26.187c0.009 0 0.017 0.002 0.025 0.005s0.015 0.007 0.021 0.013l-0-0 0.116 0.111c-0.091 0.090-0.202 0.162-0.327 0.211-0.129 0.048-0.278 0.076-0.434 0.076-0.011 0-0.021-0-0.032-0l0.002 0c-0.149 0.003-0.298-0.021-0.436-0.071-0.128-0.046-0.237-0.114-0.33-0.2l0.001 0.001c-0.090-0.085-0.161-0.188-0.21-0.302l-0.002-0.006c-0.047-0.114-0.075-0.246-0.075-0.385 0-0.004 0-0.008 0-0.012v0.001c-0-0.006-0-0.013-0-0.020 0-0.272 0.118-0.516 0.305-0.684l0.001-0.001c0.099-0.087 0.218-0.155 0.349-0.201 0.143-0.048 0.296-0.072 0.45-0.070 0.008-0 0.018-0 0.028-0 0.139 0 0.273 0.024 0.398 0.067l-0.009-0.003c0.115 0.044 0.221 0.104 0.313 0.179l-0.098 0.118c-0.007 0.008-0.015 0.015-0.024 0.021l-0 0c-0.010 0.006-0.021 0.009-0.034 0.009-0.002 0-0.004-0-0.006-0l0 0c-0.016-0.001-0.030-0.005-0.043-0.012l0 0-0.052-0.032-0.073-0.041c-0.066-0.032-0.144-0.057-0.225-0.070l-0.005-0.001c-0.048-0.008-0.104-0.013-0.161-0.013-0.004 0-0.009 0-0.013 0h0.001c-0.003-0-0.007-0-0.011-0-0.112 0-0.219 0.020-0.319 0.055l0.007-0.002c-0.098 0.034-0.182 0.085-0.254 0.15l0.001-0.001c-0.073 0.068-0.128 0.149-0.164 0.237-0.038 0.089-0.059 0.193-0.059 0.302 0 0.004 0 0.008 0 0.011v-0.001c-0 0.004-0 0.008-0 0.013 0 0.11 0.022 0.215 0.061 0.311l-0.002-0.005c0.036 0.087 0.091 0.167 0.162 0.236 0.067 0.064 0.149 0.115 0.242 0.147 0.095 0.034 0.196 0.051 0.299 0.051 0.059 0.001 0.119-0.003 0.178-0.010 0.148-0.015 0.28-0.074 0.385-0.164l-0.001 0.001c0.015-0.012 0.034-0.020 0.055-0.020h0zM22.775 25.629c0 0.003 0 0.008 0 0.012 0 0.138-0.029 0.269-0.081 0.387l0.002-0.006c-0.052 0.12-0.126 0.222-0.218 0.304l-0.001 0.001c-0.097 0.086-0.211 0.154-0.337 0.198l-0.007 0.002c-0.132 0.045-0.284 0.071-0.442 0.071s-0.31-0.026-0.452-0.074l0.010 0.003c-0.132-0.047-0.245-0.115-0.342-0.202l0.001 0.001c-0.093-0.084-0.168-0.187-0.219-0.303l-0.002-0.006c-0.050-0.116-0.078-0.251-0.078-0.393s0.029-0.277 0.081-0.4l-0.003 0.007c0.050-0.115 0.125-0.22 0.221-0.309 0.097-0.085 0.213-0.15 0.341-0.194 0.132-0.046 0.284-0.072 0.442-0.072s0.31 0.026 0.452 0.075l-0.010-0.003c0.129 0.045 0.246 0.114 0.343 0.201 0.096 0.088 0.171 0.192 0.22 0.305 0.054 0.127 0.081 0.261 0.078 0.396zM22.47 25.629c0-0.005 0-0.011 0-0.017 0-0.108-0.020-0.211-0.058-0.305l0.002 0.006c-0.071-0.182-0.216-0.322-0.396-0.384l-0.005-0.001c-0.096-0.033-0.206-0.052-0.321-0.052s-0.225 0.019-0.329 0.054l0.007-0.002c-0.096 0.034-0.178 0.085-0.246 0.15l0-0c-0.068 0.064-0.122 0.143-0.156 0.232l-0.001 0.004c-0.035 0.094-0.055 0.202-0.055 0.316s0.020 0.222 0.058 0.322l-0.002-0.006c0.071 0.182 0.217 0.322 0.399 0.383l0.005 0.001c0.207 0.068 0.435 0.068 0.643 0 0.093-0.033 0.177-0.083 0.245-0.148 0.070-0.069 0.123-0.149 0.156-0.236 0.039-0.101 0.058-0.209 0.055-0.316zM25.067 25.96l0.031 0.070c0.011-0.025 0.021-0.048 0.033-0.070 0.013-0.027 0.026-0.050 0.039-0.072l-0.002 0.003 0.743-1.174c0.015-0.020 0.028-0.033 0.043-0.037s0.033-0.007 0.051-0.007c0.003 0 0.007 0 0.010 0l-0-0h0.22v1.909h-0.26v-1.463c-0.001-0.010-0.001-0.021-0.001-0.033s0-0.023 0.001-0.035l-0 0.002-0.748 1.19c-0.010 0.018-0.025 0.033-0.043 0.043l-0.001 0c-0.018 0.010-0.040 0.016-0.063 0.016-0 0-0.001 0-0.001 0h-0.042c-0 0-0.001 0-0.002 0-0.023 0-0.044-0.006-0.063-0.016l0.001 0c-0.018-0.010-0.033-0.025-0.043-0.043l-0-0.001-0.77-1.198v1.532h-0.251v-1.905h0.219c0.003-0 0.007-0 0.010-0 0.018 0 0.036 0.002 0.052 0.007l-0.001-0c0.018 0.008 0.032 0.021 0.041 0.037l0.759 1.175c0.014 0.020 0.026 0.042 0.037 0.066l0.001 0.003zM27.863 25.865v0.715h-0.29v-1.906h0.649c0.123-0.002 0.244 0.012 0.362 0.042 0.094 0.023 0.181 0.064 0.256 0.119 0.062 0.049 0.111 0.112 0.144 0.184l0.001 0.003c0.035 0.078 0.051 0.161 0.050 0.244 0 0.003 0 0.008 0 0.012 0 0.172-0.082 0.325-0.209 0.422l-0.001 0.001c-0.075 0.057-0.163 0.1-0.258 0.126-0.098 0.028-0.211 0.044-0.327 0.044-0.008 0-0.016-0-0.024-0l-0.351-0.005zM27.863 25.66h0.352c0.076 0.001 0.153-0.009 0.226-0.029 0.062-0.018 0.116-0.046 0.164-0.083l-0.001 0.001c0.082-0.068 0.133-0.169 0.133-0.282 0-0.002 0-0.003-0-0.005v0c0-0.006 0.001-0.013 0.001-0.021 0-0.049-0.011-0.095-0.030-0.137l0.001 0.002c-0.024-0.052-0.059-0.095-0.101-0.13l-0.001-0.001c-0.097-0.065-0.217-0.104-0.345-0.104-0.016 0-0.032 0.001-0.048 0.002l0.002-0h-0.352v0.786zM31.772 26.582h-0.229c-0.001 0-0.003 0-0.004 0-0.022 0-0.043-0.007-0.060-0.018l0 0c-0.016-0.011-0.029-0.026-0.038-0.044l-0-0.001-0.197-0.461h-0.994l-0.205 0.461c-0.018 0.037-0.055 0.062-0.099 0.062-0.001 0-0.002 0-0.003-0h-0.23l0.873-1.909h0.302l0.884 1.909zM30.332 25.874h0.82l-0.346-0.777c-0.027-0.059-0.048-0.118-0.066-0.179l-0.034 0.1c-0.010 0.030-0.021 0.059-0.032 0.081l-0.343 0.775zM33.029 24.683c0.017 0.008 0.032 0.020 0.043 0.034l1.273 1.439v-1.482h0.26v1.909h-0.145c-0.001 0-0.002 0-0.003 0-0.020 0-0.040-0.004-0.057-0.012l0.001 0c-0.018-0.009-0.034-0.021-0.047-0.035l-0-0-1.27-1.438c0.001 0.010 0.001 0.021 0.001 0.033s-0 0.023-0.001 0.034l0-0.002v1.419h-0.26v-1.909h0.154c0.018 0 0.036 0.003 0.052 0.009zM36.748 25.823v0.758h-0.291v-0.757l-0.804-1.15h0.26c0.002-0 0.004-0 0.006-0 0.021 0 0.040 0.006 0.056 0.016l-0-0c0.016 0.013 0.029 0.027 0.039 0.043l0.503 0.742c0.020 0.032 0.038 0.061 0.052 0.089s0.027 0.054 0.037 0.081l0.037-0.082c0.014-0.030 0.031-0.059 0.050-0.087l0.496-0.747c0.011-0.015 0.023-0.029 0.037-0.040l0-0c0.016-0.012 0.036-0.019 0.057-0.019 0.002 0 0.004 0 0.006 0h0.263l-0.805 1.155zM24.923 21.47c0.126 0.014 0.254 0.025 0.384 0.035 1.962-0.763 3.622-2.011 4.772-3.588s1.739-3.415 1.694-5.282l-2.162-1.878c0.439 1.988 0.234 4.043-0.594 5.935s-2.245 3.547-4.094 4.779z"></path>
<path  d="M24.151 21.382l0.058 0.011c1.975-1.228 3.481-2.942 4.323-4.922s0.981-4.133 0.4-6.181l-3.080-2.676c1.245 2.199 1.747 4.661 1.445 7.099-0.301 2.437-1.392 4.75-3.147 6.669zM34.596 14.841c-0.523 2.052-1.794 3.902-3.623 5.276-0.5 0.38-1.064 0.737-1.658 1.043l-0.065 0.030c1.49-0.38 2.859-1.053 4.003-1.966s2.030-2.042 2.592-3.3l-1.249-1.084z"></path>
<path  d="M34.106 14.539l-1.778-1.545c-0.034 1.762-0.611 3.483-1.669 4.986s-2.562 2.732-4.352 3.559h0.009c0.399 0 0.797-0.021 1.194-0.062 1.673-0.594 3.151-1.538 4.302-2.748s1.94-2.65 2.295-4.189zM24.409 6.485l-2.122-1.845c-1.897 0.637-3.527 1.756-4.68 3.212s-1.772 3.179-1.778 4.946c0.007 1.952 0.763 3.846 2.149 5.383 1.385 1.536 3.321 2.628 5.501 3.101 1.946-2.060 3.085-4.605 3.252-7.266s-0.647-5.299-2.323-7.531zM39.008 14.254c-0.007-2.316-1.070-4.535-2.955-6.173s-4.439-2.561-7.105-2.567c-0.006 0-0.014-0-0.021-0-1.281 0-2.512 0.213-3.66 0.606l0.079-0.024 12.989 11.286c0.423-0.919 0.671-1.995 0.672-3.128v-0z"></path>
</symbol>
<symbol id="icon-Logo-4-new" viewBox="0 0 57 32">
<path  d="M12.878 11.255h-0.002c-1.279 0-2.316 0.921-2.316 2.058v0.002c0 1.137 1.037 2.058 2.316 2.058h0.002c1.279 0 2.316-0.922 2.316-2.058v-0.001c0-1.137-1.037-2.059-2.316-2.059zM29.971 10.597c-0.004-1.579-0.711-3.092-1.967-4.209s-2.958-1.745-4.734-1.749c-1.777 0.003-3.481 0.631-4.737 1.748s-1.964 2.63-1.968 4.209v8.706s13.405-1.327 13.406-8.704v-0.002zM5.867 22.16c0.003 1.099 0.496 2.151 1.37 2.928s2.058 1.214 3.294 1.218c1.236-0.003 2.42-0.441 3.294-1.218s1.366-1.829 1.37-2.927v-6.058s-9.327 0.924-9.327 6.057zM10.53 23.245c-0.242 0-0.477-0.063-0.678-0.183-0.195-0.115-0.35-0.281-0.447-0.48l-0.003-0.007c-0.059-0.121-0.093-0.264-0.093-0.415 0-0.075 0.009-0.148 0.025-0.219l-0.001 0.007c0.047-0.211 0.163-0.404 0.334-0.556s0.388-0.255 0.625-0.297c0.072-0.013 0.154-0.021 0.239-0.021 0.168 0 0.328 0.030 0.476 0.085l-0.009-0.003c0.223 0.082 0.414 0.221 0.548 0.4s0.206 0.388 0.206 0.603c0.001 0.143-0.030 0.285-0.092 0.417-0.066 0.139-0.155 0.256-0.263 0.352l-0.001 0.001c-0.113 0.101-0.248 0.181-0.397 0.236-0.139 0.053-0.3 0.083-0.467 0.083-0 0-0.001 0-0.001 0h0v-0.004zM19.956 22.647h-0.9v0.93h-0.469v-2.276h1.482v0.38h-1.013v0.588h0.9v0.378zM22.209 22.491c0 0.224-0.039 0.42-0.118 0.589s-0.193 0.299-0.341 0.391c-0.139 0.086-0.308 0.138-0.489 0.138-0.006 0-0.012-0-0.018-0h0.001c-0.189 0-0.357-0.045-0.505-0.136-0.149-0.094-0.267-0.226-0.341-0.382l-0.002-0.006c-0.078-0.165-0.123-0.358-0.123-0.561 0-0.007 0-0.014 0-0.021v0.001-0.112c0-0.224 0.040-0.421 0.12-0.591 0.081-0.171 0.195-0.302 0.342-0.392 0.148-0.092 0.316-0.138 0.506-0.138s0.357 0.046 0.505 0.138c0.148 0.091 0.262 0.221 0.342 0.392 0.081 0.17 0.122 0.366 0.122 0.589v0.101zM21.734 22.388c0-0.238-0.043-0.42-0.128-0.544-0.076-0.113-0.203-0.186-0.348-0.186-0.006 0-0.013 0-0.019 0l0.001-0c-0.005-0-0.012-0-0.018-0-0.144 0-0.271 0.073-0.346 0.183l-0.001 0.001c-0.085 0.122-0.129 0.301-0.13 0.538v0.111c0 0.232 0.043 0.412 0.128 0.54s0.208 0.192 0.369 0.192c0.006 0 0.012 0 0.018 0 0.143 0 0.269-0.073 0.343-0.183l0.001-0.001c0.084-0.124 0.127-0.304 0.128-0.541v-0.111zM23.729 22.98c0-0.004 0-0.009 0-0.013 0-0.077-0.037-0.145-0.093-0.189l-0.001-0c-0.062-0.048-0.175-0.098-0.338-0.15-0.15-0.047-0.278-0.1-0.399-0.163l0.014 0.006c-0.259-0.14-0.388-0.328-0.388-0.564 0-0.123 0.034-0.233 0.103-0.328 0.070-0.097 0.17-0.172 0.299-0.227 0.13-0.054 0.276-0.081 0.437-0.081 0.163 0 0.307 0.029 0.435 0.089 0.127 0.059 0.226 0.141 0.295 0.249 0.071 0.107 0.107 0.229 0.107 0.365h-0.469c0-0.104-0.032-0.185-0.098-0.242-0.066-0.059-0.158-0.087-0.276-0.087-0.115 0-0.204 0.025-0.267 0.074-0.058 0.042-0.096 0.109-0.096 0.185 0 0.002 0 0.004 0 0.006v-0c0 0.074 0.037 0.136 0.111 0.186 0.075 0.050 0.185 0.097 0.33 0.14 0.267 0.080 0.461 0.18 0.583 0.299s0.183 0.267 0.183 0.444c0 0.197-0.075 0.352-0.224 0.464s-0.349 0.167-0.601 0.167c-0.175 0-0.334-0.032-0.478-0.096-0.135-0.057-0.247-0.148-0.328-0.261l-0.002-0.002c-0.070-0.105-0.112-0.234-0.112-0.373 0-0.005 0-0.010 0-0.015v0.001h0.47c0 0.251 0.15 0.377 0.45 0.377 0.111 0 0.198-0.022 0.261-0.067 0.057-0.041 0.093-0.107 0.093-0.182 0-0.003-0-0.006-0-0.009v0zM26.231 21.682h-0.697v1.895h-0.469v-1.895h-0.686v-0.38h1.853v0.38zM27.868 22.591h-0.9v0.61h1.056v0.377h-1.525v-2.276h1.522v0.38h-1.053v0.542h0.9v0.367zM29.142 22.744h-0.373v0.833h-0.469v-2.276h0.845c0.269 0 0.476 0.060 0.622 0.18s0.219 0.289 0.219 0.508c0 0.155-0.034 0.285-0.101 0.389-0.075 0.109-0.179 0.194-0.3 0.245l-0.005 0.002 0.492 0.93v0.021h-0.503l-0.427-0.832zM28.769 22.364h0.379c0.117 0 0.208-0.029 0.273-0.089 0.060-0.059 0.097-0.141 0.097-0.231 0-0.006-0-0.012-0-0.018l0 0.001c0-0.108-0.030-0.192-0.092-0.253s-0.154-0.092-0.28-0.092h-0.377v0.683zM31.609 22.775v0.802h-0.469v-2.276h0.887c0.171 0 0.321 0.031 0.45 0.094 0.13 0.062 0.23 0.151 0.3 0.267 0.069 0.115 0.105 0.245 0.105 0.392 0 0.223-0.077 0.399-0.229 0.528-0.153 0.128-0.363 0.193-0.633 0.193h-0.411zM31.609 22.396h0.419c0.124 0 0.219-0.029 0.283-0.087 0.066-0.059 0.099-0.142 0.099-0.25 0-0.005 0-0.011 0-0.017 0-0.098-0.037-0.187-0.099-0.254l0 0c-0.066-0.068-0.156-0.104-0.272-0.106h-0.43v0.715zM34.574 22.591h-0.9v0.61h1.056v0.377h-1.525v-2.276h1.522v0.38h-1.053v0.542h0.9v0.367zM36.75 21.682h-0.697v1.895h-0.469v-1.895h-0.687v-0.38h1.853v0.38zM38.387 22.591h-0.899v0.61h1.056v0.377h-1.525v-2.276h1.522v0.38h-1.053v0.542h0.9v0.367zM39.661 22.744h-0.373v0.833h-0.469v-2.276h0.846c0.269 0 0.476 0.060 0.622 0.18s0.219 0.289 0.219 0.508c0 0.155-0.034 0.285-0.101 0.389-0.075 0.109-0.179 0.194-0.301 0.245l-0.005 0.002 0.492 0.93v0.021h-0.503l-0.427-0.832zM39.287 22.364h0.378c0.117 0 0.209-0.029 0.273-0.089 0.060-0.059 0.097-0.141 0.097-0.232 0-0.006-0-0.012-0-0.018l0 0.001c0-0.108-0.030-0.192-0.092-0.253-0.060-0.061-0.154-0.092-0.279-0.092h-0.377v0.683zM42.042 22.98c0-0.004 0-0.009 0-0.013 0-0.077-0.037-0.146-0.094-0.189l-0.001-0c-0.062-0.048-0.175-0.098-0.338-0.15-0.15-0.047-0.278-0.1-0.399-0.163l0.014 0.006c-0.259-0.14-0.388-0.328-0.388-0.564 0-0.123 0.035-0.233 0.103-0.328 0.070-0.097 0.17-0.172 0.299-0.227 0.13-0.054 0.276-0.081 0.437-0.081 0.163 0 0.307 0.029 0.435 0.089 0.127 0.059 0.226 0.141 0.295 0.249 0.071 0.107 0.107 0.229 0.107 0.365h-0.469c0-0.104-0.032-0.185-0.098-0.242-0.066-0.059-0.158-0.087-0.276-0.087-0.115 0-0.204 0.025-0.267 0.074-0.058 0.042-0.096 0.109-0.096 0.186 0 0.002 0 0.003 0 0.005v-0c0 0.074 0.037 0.136 0.111 0.186s0.185 0.097 0.33 0.14c0.267 0.080 0.461 0.18 0.583 0.299s0.183 0.267 0.183 0.444c0 0.197-0.075 0.352-0.224 0.464s-0.349 0.167-0.601 0.167c-0.175 0-0.334-0.032-0.478-0.096-0.135-0.057-0.247-0.148-0.328-0.261l-0.002-0.002c-0.070-0.105-0.112-0.234-0.112-0.373 0-0.005 0-0.010 0-0.015v0.001h0.47c0 0.251 0.15 0.377 0.45 0.377 0.111 0 0.198-0.022 0.261-0.067 0.057-0.041 0.094-0.107 0.094-0.182 0-0.003-0-0.006-0-0.009v0z"></path>
<symbol id="icon-Logo-5-new" viewBox="0 0 57 32">
<path  d="M14.27 23.859c0.13 0.147 0.199 0.332 0.196 0.521 0.001 0.012 0.001 0.026 0.001 0.039 0 0.117-0.026 0.227-0.073 0.326l0.002-0.005c-0.056 0.119-0.135 0.218-0.232 0.296l-0.002 0.001c-0.221 0.152-0.494 0.243-0.789 0.243-0.032 0-0.064-0.001-0.096-0.003l0.004 0h-1.549v-3.301h1.517c0.027-0.002 0.058-0.003 0.090-0.003 0.279 0 0.539 0.083 0.756 0.225l-0.005-0.003c0.098 0.076 0.176 0.171 0.227 0.277 0.051 0.108 0.074 0.224 0.068 0.341 0.009 0.181-0.053 0.361-0.176 0.505-0.118 0.131-0.281 0.222-0.462 0.258 0.205 0.034 0.391 0.134 0.523 0.283zM12.454 23.361h0.649c0.147 0.010 0.293-0.029 0.412-0.11 0.047-0.039 0.085-0.088 0.109-0.144l0.001-0.003c0.019-0.043 0.030-0.092 0.030-0.145 0-0.011-0.001-0.022-0.001-0.033l0 0.001c0.001-0.008 0.001-0.018 0.001-0.028 0-0.053-0.011-0.104-0.031-0.15l0.001 0.002c-0.025-0.058-0.062-0.108-0.108-0.147l-0.001-0c-0.105-0.071-0.234-0.113-0.373-0.113-0.018 0-0.036 0.001-0.054 0.002l0.002-0h-0.638v0.867zM13.578 24.627c0.051-0.040 0.091-0.091 0.118-0.149l0.001-0.003c0.022-0.046 0.034-0.101 0.034-0.158 0-0.009-0-0.018-0.001-0.027l0 0.001c0-0.007 0.001-0.016 0.001-0.024 0-0.059-0.013-0.115-0.037-0.165l0.001 0.002c-0.029-0.061-0.070-0.112-0.121-0.151l-0.001-0.001c-0.112-0.076-0.249-0.121-0.397-0.121-0.015 0-0.030 0-0.045 0.001l0.002-0h-0.68v0.908h0.689c0.155 0.008 0.308-0.032 0.435-0.115zM17.371 25.278l-0.843-1.291h-0.317v1.291h-0.726v-3.302h1.374c0.029-0.002 0.064-0.003 0.098-0.003 0.323 0 0.622 0.107 0.862 0.287l-0.004-0.003c0.192 0.179 0.308 0.415 0.327 0.666 0.002 0.021 0.002 0.045 0.002 0.069 0 0.241-0.086 0.461-0.228 0.633l0.001-0.002c-0.171 0.175-0.396 0.296-0.649 0.335l-0.006 0.001 0.899 1.319h-0.789zM16.21 23.538h0.594c0.412 0 0.619-0.166 0.619-0.5 0-0.008 0.001-0.017 0.001-0.027 0-0.063-0.013-0.122-0.035-0.176l0.001 0.003c-0.028-0.067-0.068-0.124-0.118-0.171l-0-0c-0.113-0.085-0.255-0.136-0.41-0.136-0.020 0-0.040 0.001-0.060 0.003l0.003-0h-0.601l0.007 1.005zM21.339 24.613h-1.446l-0.255 0.665h-0.761l1.328-3.265h0.823l1.323 3.265h-0.761l-0.25-0.665zM21.145 24.114l-0.529-1.394-0.529 1.394h1.057zM26.305 25.278h-0.72l-1.616-2.245v2.245h-0.719v-3.302h0.719l1.616 2.259v-2.259h0.72v3.302zM30.418 24.488c-0.149 0.249-0.376 0.452-0.652 0.582-0.28 0.132-0.608 0.209-0.955 0.209-0.021 0-0.041-0-0.062-0.001l0.003 0h-1.282v-3.302h1.283c0.018-0 0.039-0.001 0.060-0.001 0.345 0 0.673 0.075 0.968 0.209l-0.015-0.006c0.276 0.128 0.503 0.329 0.652 0.576 0.148 0.269 0.226 0.565 0.226 0.867s-0.077 0.597-0.226 0.866zM29.593 24.409c0.196-0.205 0.317-0.482 0.318-0.788v-0c0-0.289-0.113-0.569-0.318-0.788-0.223-0.177-0.509-0.284-0.82-0.284-0.029 0-0.058 0.001-0.086 0.003l0.004-0h-0.5v2.138h0.5c0.025 0.002 0.054 0.003 0.083 0.003 0.311 0 0.596-0.107 0.822-0.285l-0.003 0.002zM21.79 3.609s9.3 3.215 9.103 7.867v7.869s-9.294-3.216-9.1-7.869l-0.003-7.867zM39.179 17.503c1.757-1.107 3.788-1.792 5.909-1.994v-2.464c-2.444 0.863-4.517 2.427-5.909 4.458z"></path>
<path  d="M38.124 18.245c1.437-2.651 3.93-4.696 6.964-5.716v-7.098s-13.245 4.58-12.965 11.205v11.203s0.59-0.205 1.519-0.589c0-0.358 0-0.719 0.043-1.083 0.274-3.075 1.87-5.925 4.439-7.924z"></path>
<path  d="M36.864 22.407c0.069-0.777 0.225-1.546 0.463-2.294-1.599 1.725-2.568 3.867-2.769 6.122-0.020 0.213-0.030 0.426-0.036 0.645 1.105-0.483 1.942-0.895 2.761-1.334l-0.214 0.105c-0.235-1.067-0.304-2.159-0.206-3.244zM37.391 22.447c-0.026 0.273-0.041 0.589-0.041 0.909 0 0.718 0.074 1.419 0.216 2.094l-0.012-0.066c3.619-1.983 7.685-5.046 7.528-8.748v-0.323c-2.586 0.265-5.004 1.3-6.885 2.946-0.415 0.932-0.702 2.014-0.804 3.148l-0.003 0.040z"></path>
</symbol>
<symbol id="icon-Logo-6-new" viewBox="0 0 57 32">
<path d="M28.493 14.618c-0.203-0.262-0.326-0.596-0.326-0.958 0-0.036 0.001-0.071 0.004-0.107l-0 0.005v-1.538c0-0.471 0.107-0.829 0.321-1.075 0.213-0.245 0.581-0.367 1.101-0.366 0.489 0 0.837 0.105 1.042 0.313 0.224 0.266 0.333 0.591 0.308 0.919v0.362h-0.875v-0.366c0.003-0.119-0.005-0.239-0.026-0.358-0.015-0.087-0.060-0.161-0.125-0.212l-0.001-0.001c-0.079-0.053-0.175-0.084-0.279-0.084-0.013 0-0.026 0.001-0.039 0.001l0.002-0c-0.011-0.001-0.025-0.001-0.038-0.001-0.11 0-0.212 0.033-0.297 0.090l0.002-0.001c-0.072 0.058-0.124 0.139-0.145 0.232l-0 0.003c-0.022 0.105-0.035 0.226-0.035 0.351 0 0.010 0 0.021 0 0.031l-0-0.002v1.866c-0.014 0.18 0.025 0.36 0.112 0.524 0.045 0.056 0.104 0.1 0.172 0.126l0.003 0.001c0.051 0.020 0.111 0.032 0.173 0.032 0.019 0 0.037-0.001 0.055-0.003l-0.002 0c0.011 0.001 0.024 0.001 0.037 0.001 0.102 0 0.197-0.032 0.274-0.087l-0.002 0.001c0.068-0.056 0.115-0.135 0.13-0.224l0-0.002c0.020-0.124 0.030-0.249 0.027-0.374v-0.379h0.875v0.346c0.002 0.027 0.003 0.059 0.003 0.091 0 0.332-0.115 0.638-0.308 0.878l0.002-0.003c-0.201 0.228-0.544 0.342-1.047 0.342s-0.884-0.122-1.1-0.375zM32.137 14.634c-0.221-0.24-0.332-0.588-0.332-1.050v-1.618c0-0.457 0.11-0.803 0.332-1.037s0.59-0.351 1.109-0.35c0.515 0 0.882 0.117 1.103 0.35 0.221 0.235 0.333 0.58 0.333 1.037v1.617c0 0.457-0.112 0.807-0.337 1.049s-0.59 0.361-1.1 0.361-0.886-0.122-1.109-0.359zM33.653 14.245c0.079-0.149 0.115-0.314 0.105-0.478v-1.981c0.001-0.016 0.002-0.035 0.002-0.053 0-0.152-0.039-0.296-0.107-0.421l0.002 0.005c-0.046-0.057-0.107-0.101-0.176-0.128l-0.003-0.001c-0.051-0.020-0.11-0.031-0.171-0.031-0.021 0-0.042 0.001-0.062 0.004l0.002-0c-0.018-0.002-0.038-0.004-0.059-0.004-0.062 0-0.121 0.011-0.176 0.032l0.003-0.001c-0.072 0.027-0.133 0.071-0.179 0.128l-0.001 0.001c-0.080 0.147-0.116 0.308-0.105 0.469v1.99c-0.011 0.165 0.025 0.329 0.105 0.479 0.051 0.050 0.114 0.091 0.185 0.118 0.067 0.027 0.144 0.042 0.225 0.042s0.158-0.016 0.229-0.044l-0.004 0.001c0.071-0.028 0.133-0.068 0.185-0.118v-0.010zM35.735 10.626h0.942l0.708 2.984 0.725-2.984h0.916l0.093 4.307h-0.678l-0.073-2.994-0.699 2.994h-0.544l-0.724-3.005-0.067 3.005h-0.685l0.085-4.307zM40.176 10.626h1.468c0.845 0 1.268 0.407 1.268 1.223 0 0.781-0.445 1.171-1.335 1.17h-0.5v1.914h-0.906l0.005-4.308zM41.43 12.467c0.090 0.010 0.18 0.003 0.267-0.021 0.085-0.023 0.165-0.062 0.231-0.115 0.104-0.146 0.15-0.316 0.131-0.486 0.001-0.014 0.001-0.031 0.001-0.047 0-0.122-0.016-0.241-0.047-0.353l0.002 0.009c-0.014-0.046-0.037-0.085-0.067-0.119l0 0c-0.032-0.035-0.070-0.064-0.112-0.085l-0.002-0.001c-0.105-0.045-0.228-0.071-0.357-0.071-0.017 0-0.033 0-0.050 0.001l0.002-0h-0.351v1.287h0.352zM44.219 10.626h0.973l0.998 4.307h-0.845l-0.197-0.993h-0.868l-0.203 0.993h-0.857l0.998-4.307zM45.050 13.442l-0.339-1.808-0.339 1.808h0.677zM46.996 10.626h0.635l1.213 2.457v-2.457h0.752v4.307h-0.603l-1.221-2.565v2.565h-0.777l0.002-4.307zM51.357 13.291l-1.009-2.659h0.85l0.616 1.708 0.578-1.708h0.832l-0.997 2.659v1.642h-0.869v-1.643zM29.892 16.817v0.225h-0.739v1.75h-0.31v-1.75h-0.743v-0.225h1.792zM32.21 18.793h-0.239c-0.002 0-0.004 0-0.007 0-0.023 0-0.044-0.007-0.061-0.019l0 0c-0.017-0.011-0.031-0.026-0.039-0.045l-0-0.001-0.214-0.469h-1.026l-0.213 0.469c-0.007 0.021-0.018 0.039-0.033 0.053l-0 0c-0.017 0.012-0.039 0.019-0.062 0.019-0.002 0-0.004-0-0.006-0h-0.239l0.906-1.975h0.315l0.917 1.968zM30.709 18.059h0.855l-0.363-0.804c-0.023-0.051-0.046-0.112-0.064-0.176l-0.003-0.010c-0.013 0.037-0.023 0.074-0.034 0.105l-0.033 0.083-0.358 0.803zM33.771 18.598c0.057 0.003 0.114 0.003 0.171 0 0.049-0.004 0.097-0.012 0.145-0.023 0.044-0.009 0.088-0.021 0.131-0.036 0.040-0.014 0.080-0.031 0.121-0.049v-0.444h-0.362c-0.001 0-0.002 0-0.003 0-0.017 0-0.033-0.006-0.046-0.016l0 0c-0.006-0.004-0.010-0.010-0.014-0.016l-0-0c-0.003-0.005-0.004-0.011-0.004-0.018 0-0.001 0-0.001 0-0.002v0-0.151h0.703v0.757c-0.11 0.068-0.237 0.123-0.372 0.158l-0.010 0.002c-0.075 0.019-0.15 0.033-0.227 0.041-0.088 0.009-0.176 0.012-0.265 0.012-0.003 0-0.007 0-0.011 0-0.159 0-0.312-0.027-0.455-0.077l0.010 0.003c-0.14-0.049-0.26-0.119-0.364-0.208l0.002 0.001c-0.097-0.086-0.176-0.19-0.231-0.307l-0.002-0.006c-0.053-0.117-0.083-0.253-0.083-0.397 0-0.004 0-0.009 0-0.013v0.001c-0-0.004-0-0.008-0-0.012 0-0.145 0.030-0.283 0.084-0.407l-0.003 0.007c0.052-0.117 0.132-0.224 0.234-0.313 0.103-0.089 0.227-0.158 0.363-0.205 0.155-0.051 0.32-0.076 0.485-0.074 0.084 0 0.169 0.005 0.252 0.017 0.074 0.011 0.146 0.027 0.215 0.050 0.064 0.020 0.124 0.047 0.181 0.078 0.055 0.031 0.108 0.065 0.158 0.103l-0.087 0.122c-0.007 0.011-0.017 0.020-0.029 0.026l-0 0c-0.012 0.007-0.026 0.010-0.042 0.011h-0c-0.021-0-0.040-0.006-0.057-0.016l0.001 0c-0.037-0.017-0.066-0.033-0.094-0.050l0.005 0.003c-0.034-0.019-0.074-0.037-0.115-0.052l-0.006-0.002c-0.046-0.017-0.102-0.032-0.16-0.043l-0.007-0.001c-0.065-0.011-0.141-0.017-0.218-0.017-0.004 0-0.008 0-0.013 0h0.001c-0.003-0-0.007-0-0.011-0-0.121 0-0.238 0.020-0.346 0.057l0.008-0.002c-0.101 0.035-0.192 0.088-0.267 0.156-0.072 0.067-0.129 0.149-0.166 0.241l-0.002 0.005c-0.038 0.098-0.061 0.211-0.061 0.329s0.022 0.232 0.063 0.336l-0.002-0.006c0.039 0.093 0.101 0.178 0.181 0.249 0.074 0.068 0.164 0.121 0.264 0.156 0.115 0.034 0.237 0.047 0.359 0.039zM36.659 18.567h0.989v0.225h-1.291v-1.975h0.309l-0.007 1.75zM38.677 18.793h-0.309v-1.975h0.309v1.975zM39.83 16.827c0.019 0.009 0.034 0.021 0.047 0.036l0 0 1.324 1.489c-0.001-0.011-0.001-0.023-0.001-0.035s0-0.025 0.001-0.037l-0 0.002v-1.472h0.27v1.984h-0.156c-0.003 0-0.007 0-0.010 0-0.021 0-0.040-0.004-0.058-0.012l0.001 0c-0.019-0.010-0.035-0.022-0.048-0.037l-0-0-1.323-1.488v1.536h-0.259v-1.975h0.161c0.018 0 0.035 0.003 0.051 0.009zM43.753 16.817v0.217h-1.098v0.652h0.89v0.21h-0.89v0.674h1.098v0.218h-1.417v-1.971h1.417zM11.286 4.617l13.757 3.372v11.818l-13.757-3.371v-11.82zM10.404 3.609v13.401l15.52 3.806v-13.399l-15.52-3.807z"></path>
<path  d="M18.722 27.036l-15.522-3.809v-13.399l15.522 3.807v13.401z"></path>
<path  d="M10.661 4.465l13.578 3.33-5.774 4.987-13.579-3.332 5.776-4.986zM10.404 3.609l-7.204 6.219 15.522 3.808 7.202-6.22-15.52-3.807zM19.595 26.282l6.329-5.466-6.33-1.552v7.019z"></path>
</symbol>



</symbol>
</defs></svg>